<?xml version="1.0" encoding="UTF-8"?>
<svg width="500" height="500" version="1.1" viewBox="0 0 500 500" xmlns="http://www.w3.org/2000/svg">
 <path d="m245.17 397.45c-16.732-0.50373-29.586-1.8979-44.728-2.3819-4.3794 1.1097-32.125-1.2054-32.217 0.53691 1.1738-3.0988-23.08-1.1274-31.518-3.3334-26.508-2.6041-53.113-3.0741-79.598-5.404-20.161-5.8931-13.011-28.222-12.232-43.854 0.74826-28.42 4.7145-56.711 5.0468-85.136-3.3411-18.109-3.7462-36.789-6.4613-55.093-1.1364-17.509 1.3432-36.191-6.6806-52.756-3.8805-16.921 16.016-32.609 26.951-14.136 16.137 9.5461 20.478 29.205 34.455 41.207 15.399 13.709 29.374 28.601 44.486 42.517 9.1832 19.786 32.528 9.3795 32.048-9.9346 5.7638-13.285 15.267-28.497 21.26-36.877 11.194-15.856 19.272-32.176 32.021-44.425 12.934-5.8058 23.472 20.25 31.135 29.678 12.406 13.357 16.194 31.212 27.657 44.14 24.022 14.853 22.1-20.245 35.941-29.64 7.4721-17.975 20.443-33.617 31.352-47.588 20.563-5.7507 27.202 23.395 33.537 37.534 10.78 8.9459 12.466 44.658 30.486 30.497 6.9659-18.75 22.493-30.927 34.415-45.809 14.187-17.348 22.661 8.1251 16.184 20.422 1.6604 48.124 0.85666 25.508 0.94812 30.033 0.67897 16.36-1.2662 33.584-4.2682 49.018-2.8229 16.164-2.6998 32.789-1.5282 50.091 3.8898 19.56 6.6184 39.206 9.6283 59.209 7.4095 18.878-8.819 34.559-28.31 29.912-19.659-0.53028-38.861 4.4424-58.412 5.0377-11.384 1.5206-23.605 2.805-35.465 2.2589-17.252-0.23771-30.933 1.5596-48.233 2.9789-16.591 0.98132-35.313 1.5565-53.192 0.75555-3.9384 2.9765-2.6827-0.38236-4.706 0.54112zm-2.0937-22.091c14.681 3.4695 25.673-0.81925 38.14 2.2348 9.4159 0.3774 30.624-4.0368 32.749-1.7605 16.928-3.1782 33.848-1.9585 50.456-3.3528 17.283-1.9985 34.277-0.73303 51.947-3.6282 11.455-1.3839 42.29 6.0044 38.13-17.873-4.9666-19.076-9.9587-38.98-7.4414-58.747-5.863-15.212 4.1044-33.49-1.2191-46.533 0.81086-12.778 11.116-39.267-3.6343-42.544-9.4039 10.282-22.127 29.183-35.592 29.087-5.6588-14.639-18.191-25.281-23.628-39.872-6.2597-14.06-10.404-33.927-27.043-39.097-14.051 11.819-18.984 34.042-29.834 49.186-10.705 10.536-13.651 26.717-24.94 36.318-24.065 8.8494-19.433-24.109-35.033-31.805-11.309-15.732-16.844-35.52-32.064-48.202-17.387-0.24221-17.549 28.483-30.706 38.222-5.9498 15.325-17.006 30.276-25.033 43.087-6.0026 13.567-29.797 27.685-37.434 6.9516-8.2763-13.347-21.953-20.803-31.092-33.17-12.602-11.425-20.93-27.367-38.073-32.896-20.817 6.298-6.7209 32.327-6.7522 47.736 1.0136 18.186 3.5628 36.308 2.1524 54.737 1.0722 17.66-3.7945 33.825-2.5142 51.313-6.8292 16.044-1.8082 42.296 21.402 34.873 18.21 0.78488 36.644 1.3477 54.636 3.1912 18.571 4.0404 35.359 0.20731 52.71 3.0975 13.023 2.8138 36.065-1.0382 49.711-0.55522z"/>
</svg>
