<?xml version="1.0" encoding="UTF-8"?>
<svg width="500" height="500" version="1.1" viewBox="0 0 500 500" xmlns="http://www.w3.org/2000/svg">
 <path d="m266.63 473.46c-26.594-3.6754 5.056-25.192-0.36017-39.027-2.5934-16.699 6.2229-32.211 10.197-47.938 2.4846-14.002 5.3256-29.55 5.15-45.025 2.6533-20.575-0.78553-39.487-13.373-55.792-5.0305-19.828-30.287-17.361-43.928-28.353-15.478-6.3042-26.232-22.685-45.709-18.336-17.957 2.5531-34.209-1.3492-45.313-16.101-14.074-12.629-19.995-32.862-23.076-50.597-0.6589-13.923-1.7537-30.3 2.0868-42.703 3.785-18.018 10.38-42.542 30.981-47.15 14.89-1.2748 34.864-6.8299 46.488 5.0774 16.467 4.1887 22.126 41.541 39.972 26.914 9.3597-15.878 15.835-33.345 23.3-50.135 12.842-12.157 28.067-23.829 47.047-23.562 20.933-2.2961 33.298 15.593 45.53 28.568 9.7225 10.729 19.571 25.812 27.693 39.227 15.049 12.324-0.84891 29.056-11.3 37.577-16.029 8.7163-8.0094 26.369 5.3282 31.976 9.1514 13.413 13.394 28.859 6.3889 44.373-2.3189 19.252-27.773 26.301-39.8 33.324-15.008 2.7372-34.692-2.2455-46.687 7.0571-5.9418 17.949 13.734 36.009 11.381 55.464 0.58187 23.452 1.1816 47.331-2.9895 70.485-10.556 14.187-8.3394 22.864-11.968 40.04-2.3139 14.49 3.8339 34.022-10.684 43.571-1.7934 2.0056-4.1823 1.018-6.356 1.0683zm27.124-177.27c-3.3769-1.2956 3.4348 4.3004 0 0zm-42.124-51.564c17.112 0.09 22.701-31.093 40.971-14.047 17.3 12.452 39.807 1.7037 56.057-7.3224 18.249-13.302 5.381-36.683-11.488-43.985-14.909-10.899-34.822-7.8732-50.698-1.3906-11.45 9.219-26.627 23.065-42.666 15.775-13.747-9.3314-23.304-24.253-29.727-39.693 2.1359-18.058-18.224-27.539-25.762-42.006-10.105-15.87-39.317-21.102-49.261-1.0694-12.691 11.483-8.4524 28.227-12.37 42.637-0.41626 16.458 5.2151 33.033 11.957 47.658 7.6299 14.44 25.248 14.286 38.777 20.251 16.408 8.1726 40.667-17.652 46.726 7.0281 5.3073 10.956 15.466 19.058 27.484 16.166zm-45.5-25.17c-0.21037-4.0556-4.3278 4.8005 0 0zm47.815-47.491c20.862 3.5243 22.469-24.744 4.1265-31.006-38.054-18.596-21.439 29.644-4.1265 31.006zm-18.75-30.216c-0.392-4.1879 2.6363 4.6639 0 0zm57.436 15.527c20.546 1.1148 33.839-15.564 51.691-20.877 17.861-3.9206 10.135-29.773 0.13214-37.048-9.8925-13.867-21.119-26.608-35.922-35.287-18.031-10.557-37.487 6.9261-45.123 22.601-3.7666 16.338-4.9347 37.976 5.3246 51.827 11.243 2.5175 12.592 20.517 23.897 18.783zm3.269-94.513c3.3996 0.30028 3.3997 0.30028 0 5e-5zm-117.46 178.01c6.0714-1.4465-1.4263 2.1379 0 0z"/>
</svg>
