<?xml version="1.0" encoding="UTF-8"?>
<svg width="500" height="500" version="1.1" viewBox="0 0 500 500" xmlns="http://www.w3.org/2000/svg">
 <path d="m213.42 429.62c-17.996-5.5592-33.652-25.495-31.14-45.505 2.2917-17.302 8.4446-41.104-15.143-46.628-9.9406-12.869-25.445-21.841-36.532-34.75-13.219-15.877-26.541-31.869-38.018-48.983-11.675-12.089-16.132-28.212-25.587-40.785-9.3927-14.987-13.86-31.662-23.985-46.105-4.9247-10.497-11.967-41.927 8.3789-31.558 6.1056 18.804 15.339 35.894 23.561 54.265 8.8875 14.06 16.85 28.002 25.805 41.111 8.8099 18.174 24.76 30.357 33.819 48.298 14.83 12.686 25.022 29.995 41.026 41.805 15.572 12.489 35.428 6.838 53.499 10.81 19.743-1.175 41.014-6.1923 56.733-18.013 13.383-7.4869 27.537-16.336 39.646-26.548 16.105-8.4351 28.034-25.824 41.024-38.23 9.3464-12.547 23.751-23.333 31.61-38.466 12.05-9.0803 21.712-29.33 31.324-43.379 7.7549-18.144 16.91-35.537 25.095-52.872 26.804-9.9541 11.107 28.241 1.562 37.971-5.3056 16.464-16.685 29.778-22.629 44.845-5.9742 14.617-17.982 24.517-28.26 36.873-11.271 14.83-24.103 25.858-36.238 40.072-14.788 11.924-25.214 26.216-41.225 35.069-10.745 14.529-28.438 14.862-40.842 27.882-18.739 3.965-34.842 11.002-48.065 24.058-19.453 13.442 15.588 27.062 1.0934 41.369-7.38 7.6052-13.419 24.523-26.515 27.395z"/>
</svg>
