<?xml version="1.0" encoding="UTF-8" standalone="no"?>
<svg
   xmlns:dc="http://purl.org/dc/elements/1.1/"
   xmlns:cc="http://creativecommons.org/ns#"
   xmlns:rdf="http://www.w3.org/1999/02/22-rdf-syntax-ns#"
   xmlns:svg="http://www.w3.org/2000/svg"
   xmlns="http://www.w3.org/2000/svg"
   xmlns:sodipodi="http://sodipodi.sourceforge.net/DTD/sodipodi-0.dtd"
   xmlns:inkscape="http://www.inkscape.org/namespaces/inkscape"
   version="1.1"
   id="svg10"
   width="1200"
   height="1200"
   viewBox="0 0 1200 1200"
   sodipodi:docname="palmtree.svg"
   inkscape:version="1.0 (4035a4fb49, 2020-05-01)">
  <metadata
     id="metadata16">
    <rdf:RDF>
      <cc:Work
         rdf:about="">
        <dc:format>image/svg+xml</dc:format>
        <dc:type
           rdf:resource="http://purl.org/dc/dcmitype/StillImage" />
        <dc:title />
      </cc:Work>
    </rdf:RDF>
  </metadata>
  <defs
     id="defs14" />
  <sodipodi:namedview
     inkscape:document-rotation="0"
     pagecolor="#ffffff"
     bordercolor="#666666"
     borderopacity="1"
     objecttolerance="10"
     gridtolerance="10"
     guidetolerance="10"
     inkscape:pageopacity="0"
     inkscape:pageshadow="2"
     inkscape:window-width="1920"
     inkscape:window-height="1017"
     id="namedview12"
     showgrid="false"
     inkscape:zoom="0.5008673"
     inkscape:cx="654.4471"
     inkscape:cy="553.24793"
     inkscape:window-x="-8"
     inkscape:window-y="-8"
     inkscape:window-maximized="1"
     inkscape:current-layer="g18" />
  <g
     inkscape:groupmode="layer"
     inkscape:label="Image"
     id="g18">
    <path
       d="m 575.08979,1038.8347 c -31.53311,-18.9035 -79.55051,15.718 -103.21929,-20.8568 -1.28547,-42.7755 8.03709,-87.23323 17.12099,-129.50116 14.31659,-41.54506 17.69299,-89.9536 21.59203,-135.76889 9.8069,-41.7617 17.56314,-85.01101 6.41074,-125.99691 -22.06953,-33.25861 -38.95443,-68.97571 -49.51964,-108.18321 -6.31904,-55.13141 -76.68868,-62.72982 -121.40241,-47.87302 -49.08615,0.71477 -89.03429,20.46699 -124.49847,50.89881 -49.49343,4.1032 -58.62426,65.20542 -98.93148,82.43814 -57.789609,14.83986 -27.505188,-64.53674 -19.42054,-94.18088 41.25244,-29.88259 41.89696,-85.65663 79.00602,-121.18419 32.70094,-26.07527 53.34636,-60.13201 62.43777,-98.79717 36.83241,-21.04969 119.8459,-6.83548 120.41444,41.07145 -46.71523,15.58029 -100.26316,15.82332 -129.01013,63.53051 -17.46161,15.07533 -62.03124,89.80421 -7.72344,62.56332 40.96449,-5.99782 78.91778,-16.40736 114.90415,-36.25732 53.0299,-6.99894 104.39266,-22.21276 156.78255,-28.50581 -5.34884,50.16856 34.09151,75.17948 79.96963,57.2514 49.62869,12.02021 50.84718,71.34861 57.71131,111.76897 7.04182,40.76139 0.82534,82.80919 7.55308,124.97777 -4.71263,26.40391 3.37907,61.6974 0.4432,93.86977 -1.00619,46.82148 -6.21123,93.92788 -5.05365,140.72062 -11.71089,38.00709 4.55666,86.3043 -32.57427,110.2257 -12.56225,8.6272 -17.88026,8.9141 -32.99259,7.7889 z m -36.43004,-8.359 c -2.42775,-5.4656 -0.75426,4.7664 0,0 z m 6.94991,-24.5 c 43.33291,-22.05917 63.35838,-78.5963 55.76608,-125.26659 -8.74339,-46.25651 13.11493,-91.26515 3.47972,-137.85876 -10.44903,-44.00411 11.15029,-90.11541 -6.04567,-132.25053 -28.6288,-48.19863 -48.88219,23.95404 -40.47466,45.63439 9.38957,60.09704 -10.70573,120.44472 1.16055,180.3861 2.81044,50.48807 -55.83467,78.90715 -47.98906,131.97001 1.02856,16.73721 14.8347,41.14708 34.10304,37.38538 z m -21.61658,-85.94092 c 1.15215,-5.69155 2.03073,3.50849 0,0 z m 7.12756,-18.80902 c 3.16258,-4.58515 -7.08859,6.40658 0,0 z M 644.7222,700.37159 c -3.37855,-2.81885 -1.41182,2.50714 0,0 z m -38.046,-41.58333 c -2.22849,1.07861 2.26755,3.82481 0,0 z m 36.3169,-4.20551 c -1.05955,-3.19529 -5.38601,2.03839 0,0 z M 521.67619,636.78826 c -2.22842,1.07871 2.26767,3.82475 0,0 z m -348.87624,-87.33896 -1.50671,2.35605 z m 133.9223,-76.07771 c -3.37873,-2.81887 -1.41186,2.5071 0,0 z m 191.5388,-76.39583 c -7.67445,-8.16365 3.40958,7.02557 0,0 z m -10.5388,-0.60417 c -3.37873,-2.81887 -1.41186,2.5071 0,0 z m -123,-69 c -3.37873,-2.81887 -1.41186,2.5071 0,0 z m 1.46801,-2.25898 -0.61065,-0.43812 z m 1.59225,-3.53599 c -4.54165,-4.89038 1.70192,4.70748 0,0 z M 241.49308,298.97576 c -1.31648,-3.7917 -2.24454,3.87252 0,0 z m 274.00708,419.01145 c 2.81242,-2.13721 3.22171,3.759 0,0 z M 872.7264,616.85167 c 5.37481,-3.73175 -1.66429,3.13842 0,0 z m -7.519,-3.00393 c -38.88733,-10.32381 -49.11364,-61.09142 -93.36638,-58.38733 -35.94352,-17.50364 29.7526,-63.38847 -28.02047,-60.21377 -42.81879,11.78248 -91.66294,-26.90241 -84.07808,-70.97362 -3.95423,-32.33885 -103.15741,-30.40666 -62.44206,-55.78238 30.21752,-19.76163 88.96499,15.83372 106.89659,-31.35196 39.93375,-27.84116 95.47172,-13.3119 142.3555,-15.46027 33.03442,-7.99404 129.26636,17.73 101.31536,-40.31752 -37.17136,-23.90334 -84.66238,-18.77121 -126.30063,-29.17683 -47.86041,-10.56871 -97.02702,-6.3295 -145.55983,-9.2083 -46.55781,-13.74942 -97.61614,-17.52308 -141.56112,-34.84787 -34.43824,-30.31521 -82.61581,-20.28735 -124.14378,-18.46937 -40.87463,11.94562 -81.78671,24.50166 -124.91031,15.8745 -61.65508,-15.8519 -43.82314,82.10325 -96.38145,70.70601 -29.91894,-18.28254 -97.597309,18.82975 -96.966104,-29.26315 15.848144,-35.69981 59.533484,-56.29971 92.600604,-81.74338 33.56596,-20.05159 73.36445,-12.81942 113.88131,-15.72831 59.45378,4.21443 118.12082,-5.57719 177.08225,-0.43031 53.90411,-1.45846 96.40652,42.74026 150.8683,42.6522 47.11051,5.13796 94.97509,-1.82957 142.11874,4.29215 42.52444,-12.13977 78.77792,12.43969 118.56759,28.46526 41.00206,6.04044 81.07549,14.37713 109.12072,47.21568 44.66235,12.43013 71.37375,59.20136 106.23005,88.37267 13.7707,30.83952 39.2437,92.61804 -3.6477,107.80218 -43.6028,-16.90284 -56.9211,-79.77072 -108.66068,-77.46487 -33.46181,-14.08222 -54.67061,-52.02794 -101.32089,-35.35484 -55.16416,4.43719 -112.93361,-3.45205 -165.60136,16.92911 -20.96742,40.04123 56.33379,47.93733 76.70823,73.50824 45.70129,17.71017 47.44075,73.69071 85.97167,97.93528 16.76286,18.23758 17.08479,75.38947 -20.75607,70.4208 z m -77.5312,-55.05948 c -2.22849,1.07861 2.26755,3.82481 0,0 z m -22.8763,-13.33896 -1.50664,2.35608 z m -97.8068,-83.47354 c -6.22515,-7.86022 2.87246,6.97746 0,0 z m 453.6831,-25.1875 c -2.2286,1.07874 2.268,3.82473 0,0 z m -382.4331,-30.47478 -2.43984,0.0477 z M 618.7222,366.37159 c -3.37855,-2.81885 -1.41182,2.50714 0,0 z m 57,-3 c -3.37855,-2.81885 -1.41182,2.50714 0,0 z m 13.954,-3.58333 c -2.22849,1.07861 2.26755,3.82481 0,0 z m 260.4389,-4.4875 c -3.91528,-4.11645 3.45973,7.70409 0,0 z m -253.3929,-0.92917 c -3.37855,-2.81885 -1.41182,2.50714 0,0 z M 992.0228,341.8072 c 53.7553,-24.61317 -65.74374,-15.73442 0,0 z M 741.7222,324.37159 c -3.37855,-2.81885 -1.41182,2.50714 0,0 z m 125,-2 c -3.37855,-2.81885 -1.41182,2.50714 0,0 z m 29.5209,-1.05811 -2.43984,0.0477 z m 61.75,-8.7787 c -1.83804,-3.79303 -2.97904,2.21847 0,0 z m 6.3616,-1.05902 c -2.24373,-5.49714 -0.94426,5.35456 0,0 z m -95.6325,-53.10417 c -3.37855,-2.81885 -1.41182,2.50714 0,0 z m -646.20266,-3.2027 -2.35605,1.50671 z m 699.22356,-22.88246 -3.4622,0.0196 z m -318.0209,-8.91484 c -3.37855,-2.81885 -1.41182,2.50714 0,0 z m 146,-28 c -3.37855,-2.81885 -1.41182,2.50714 0,0 z m -128.046,-3.58333 c -2.22849,1.07861 2.26755,3.82481 0,0 z m -10.954,-0.41667 c -3.37855,-2.81885 -1.41182,2.50714 0,0 z m -100.72912,-0.7792 c -1.84645,-3.05494 -7.22805,2.29576 0,0 z m -7.65066,-38.14866 c -3.22991,-5.0927 0.19196,6.92595 0,0 z m -265.22525,-0.73464 c -3.53245,-2.00888 4.02239,5.56515 0,0 z m 262.55902,0.0792 c -2.22842,1.07871 2.26767,3.82475 0,0 z m -248.28441,0.0236 c -4.88396,-1.56178 -3.17731,3.25372 0,0 z M 122.07202,606.26094 c 5.99967,-9.17976 3.94714,0.96779 0,0 z M 90.20365,599.3749 c -1.702683,-4.8052 4.526157,4.96918 0,0 z M 793.8056,563.29265 c 3.82467,-2.26759 1.07859,2.22827 0,0 z m -14.8125,-4.81689 c -1.5499,-5.22006 4.72291,5.3164 0,0 z M 227.72641,519.85167 c 5.37485,-3.73182 -1.66419,3.13841 0,0 z M 756.9931,497.03544 c -7.56232,0.30575 2.10459,-3.2656 0,0 z M 441.55737,480.26889 c -0.88731,-4.37467 3.34063,5.19036 0,0 z M 1091.072,465.39243 c 1.8454,-2.42929 -0.1064,4.58382 0,0 z m -884.07892,-5.35765 c 1.15215,-5.69155 2.03073,3.50849 0,0 z m 4,0 c 1.15215,-5.69155 2.03073,3.50849 0,0 z m 99.5841,-25.70046 c 0.36968,-4.11105 4.20496,6.75912 0,0 z m 24.74923,-12.81457 c 2.63717,-3.51978 0.0376,4.67915 0,0 z m 784.16669,-16.54399 c -4.166,-3.51473 7.8712,3.44417 0,0 z m -625.62758,-15.75 c -2.25941,-4.40433 8.12606,7.21928 0,0 z M 364.30396,333.67478 c 1.78056,-3.41512 5.52881,3.78045 0,0 z m 3.43912,-4.3613 2.43984,0.0477 z m 2.25,-3.04861 c 2.47028,-6.89415 3.42336,0.001 0,0 z m 359.33332,-3.74512 c 2.63727,-3.51981 0.0376,4.67916 0,0 z m 19,-2 c 2.63727,-3.51981 0.0376,4.67916 0,0 z M 362.26281,308.04504 c 2.68735,-5.29339 -0.19901,6.31023 0,0 z M 896.5574,265.68263 c 3.3776,-5.02286 -0.85313,4.03112 0,0 z m 57.8946,-27.7734 c -1.32813,-5.09448 3.29819,3.84433 0,0 z m -25.4589,-5.99249 c 2.97904,-2.21847 1.83804,3.79303 0,0 z M 535.60617,211.79278 c 3.61408,-1.83932 1.97419,3.18133 0,0 z m -24.80059,-16.50013 c 3.82478,-2.26761 1.07868,2.22827 0,0 z m 36.26645,-28.90022 c 1.84519,-2.42926 -0.10615,4.58378 0,0 z m -357.86838,-6.81581 c 4.54165,-4.89038 -1.70192,4.70748 0,0 z m 316.28943,-7.60086 c 2.24454,-3.87252 1.31648,3.7917 0,0 z m -212.93571,-3.70687 c -0.88731,-4.37467 3.34063,5.19036 0,0 z"
       style="fill:#000000"
       id="path28" />
  </g>
</svg>
