<?xml version="1.0" encoding="UTF-8"?>
<svg width="625" height="625" version="1.1" viewBox="0 0 625 625" xmlns="http://www.w3.org/2000/svg">
 <g stroke-width="1.3419">
  <path d="m310.8 9.2649a305.23 303.47 0 0 0-304.64 303.47 305.23 303.47 0 0 0 305.23 303.47 305.23 303.47 0 0 0 305.22-303.47 305.23 303.47 0 0 0-305.22-303.47 305.23 303.47 0 0 0-0.58293 0zm0.58293 21.628a283.67 282.04 0 0 1 0.16263 0 283.67 282.04 0 0 1 283.67 282.04 283.67 282.04 0 0 1-283.67 282.04 283.67 282.04 0 0 1-283.67-282.04 283.67 282.04 0 0 1 283.5-282.04z"/>
  <path d="m347.71 89.531c-15.3-0.14198-30.642 1.4441-45.338 4.8621-20.371 7.5749-38.957 14.806-60.396 17.393-17.936 12.458-40.582 15.755-58.195 28.585-14.592 11.616-28.682 23.009-38.871 38.212-15.992 14.041-20.576 37.26-35.69 52.34-9.4418 23.813-15.635 48.094-22.823 72.584 0.0036 26.516-13.588 52.24-7.329 78.623-6.0717 16.093 14.333 53.045 29.626 27.933 20.925-1.8501 39.297-20.596 61.285-18.096 23.385 7.785 10.172 36.703 15.752 54.581-1.3756 20.4 8.7124 37.85 26.384 48.405 19.253 2.8163 37.894 2.8996 57.468 2.8682 10.238 3.0797 33.075 3.892 49.402 2.4352 23.053 1.976 47.051 0.19896 67.292 11.914l2.7795 0.89554 2.8872 0.10982c24.265-2.0261 33.065-29.745 32.909-50.171-4.7069-24.636 5.6574-53.159 32.585-60.89 21.64-8.0849 51.153-6.2101 60.683-32.64 12.857-19.811 18.442-42.64 17.985-66.033 0.72421-21.233 4.1875-42.839 2.374-63.591-0.48024-21.561-10.756-38.622-22.35-55.407-6.8341-19.798-28.003-31.15-41.995-44.36-18.281-7.4449-30.927-23.724-49.415-30.313-18.59-7.0442-35.866-17.412-56.237-18.986-6.8719-0.76963-13.818-1.19-20.772-1.2546zm-10.415 20.209c3.988-0.0156 7.9708 0.31573 11.923 1.0666 23.396-4.9586 40.267 15.273 62.598 15.784 16.291 15.73 37.195 22.436 55.094 35.931 17.56 15.401 32.854 32.575 42.223 54.262 10.175 16.887 4.4023 27.78 7.3079 45.199 0.60925 20.296-2.7617 40.466-1.7742 60.611-2.1772 18.854-6.6495 37.239-22.61 49.115-19.593 4.285-40.775 11.294-60.343 20.369-17.6 9.1984-28.19 32.267-27.563 52.481-0.62135 16.067 3.5533 41.203-16.895 46.648-4.1479 2.02-8.1367 1.1333-11.885-1.0751-19.71-3.888-42.339-3.3275-55.54-20.787-10.934 11.7-32.227 33.72-46.143 10.58-5.2026-21.417-25.217-1.1788-37.826-2.5345-18.826-6.439-34.029-22.741-34.993-43.818 1.3691-18.453 7.3492-48.203-10.182-59.318-21.967-3.2658-46.518-0.61442-60.248 17.007-22.122 10.634-43.075-7.4032-30.425-29.806 1.2724-20.704 3.1358-42.243 5.1598-62.187 2.705-22.004 16.111-40.721 21.379-62.586 11.968-17.606 24.444-39.325 41.898-54.458 14.17-15.506 29.676-33.169 51.104-36.757 19.415-16.48 44.295-16.231 67.52-21.822 15.545-7.2482 32.938-13.836 50.219-13.904zm-87.832 111.44c-9.5792 9.8389-26.902 16.36-29.787 32.167-1.4662 18.35-15.244 44.075 5.2908 56.26 11.979 2.5084 24.4-1.0807 35.834-4.5114 20.869-11.196 19.012-36.928 30.892-55.506-9.8858-12.86-27.036-22.261-42.229-28.41zm121.22 17.676c-7.7354-0.16654-16.432 2.5542-24.733 4.9148-16.947 13.991-13.85 32.637-11.469 50.777 11.384 10.078 15.392 30.391 29.808 34.693 5.1262-3.5666 9.0303-7.5785 11.897-13.384 22.736-10.987 37.203-40.05 15.123-60.583-4.3272-12.331-11.86-16.229-20.627-16.417zm-10.168 124.43c-5.8794 0.38384-13.024 14.542-2.581 18.046 2.8582-4.6501 10.174-3.6146 7.988-8.6596-0.48069-6.5759-2.5091-9.1656-4.843-9.3798-0.18639-0.0171-0.37428-0.0187-0.56393-6e-3z"/>
 </g>
</svg>
