<?xml version="1.0" encoding="UTF-8" standalone="no"?>
<svg
   xmlns:dc="http://purl.org/dc/elements/1.1/"
   xmlns:cc="http://creativecommons.org/ns#"
   xmlns:rdf="http://www.w3.org/1999/02/22-rdf-syntax-ns#"
   xmlns:svg="http://www.w3.org/2000/svg"
   xmlns="http://www.w3.org/2000/svg"
   xmlns:sodipodi="http://sodipodi.sourceforge.net/DTD/sodipodi-0.dtd"
   xmlns:inkscape="http://www.inkscape.org/namespaces/inkscape"
   inkscape:version="1.0 (4035a4fb49, 2020-05-01)"
   sodipodi:docname="snowflake.svg"
   id="svg4"
   viewBox="0 0 500 500"
   version="1.1"
   height="500"
   width="500">
  <metadata
     id="metadata10">
    <rdf:RDF>
      <cc:Work
         rdf:about="">
        <dc:format>image/svg+xml</dc:format>
        <dc:type
           rdf:resource="http://purl.org/dc/dcmitype/StillImage" />
      </cc:Work>
    </rdf:RDF>
  </metadata>
  <defs
     id="defs8" />
  <sodipodi:namedview
     inkscape:current-layer="svg4"
     inkscape:window-maximized="1"
     inkscape:window-y="-8"
     inkscape:window-x="-8"
     inkscape:cy="342.03848"
     inkscape:cx="37.200471"
     inkscape:zoom="0.84551802"
     showgrid="false"
     id="namedview6"
     inkscape:window-height="1017"
     inkscape:window-width="1920"
     inkscape:pageshadow="2"
     inkscape:pageopacity="0"
     guidetolerance="10"
     gridtolerance="10"
     objecttolerance="10"
     borderopacity="1"
     bordercolor="#666666"
     pagecolor="#ffffff" />
  <path
     d="m 343.5,446.3 c -12.04568,-16.94325 -29.42385,-29.80647 -37.80936,-48.64981 -12.92088,-7.91172 -18.61084,-24.65147 -28.43965,-36.44641 -11.86802,-15.13429 -22.41525,-29.53861 -27.87749,-47.46583 -10.11626,-7.09489 -23.81486,-13.05119 -23.77114,-25.71703 -9.06401,-30.61884 -34.85203,-1.90471 -31.46565,17.68079 -6.10099,19.01875 -19.1951,34.69059 -26.07551,53.57029 -7.79431,19.38938 -18.17185,37.69858 -26.05422,57.1793 -6.626,12.81812 -28.84404,7.75898 -19.55937,-10.69 6.10804,-22.38081 24.27379,-39.50238 28.34994,-62.64562 12.42114,-21.50298 26.2409,-44.79672 23.92518,-70.52924 -4.39076,-23.92361 -29.97341,-16.51265 -42.03155,-3.72391 -23.21671,5.65483 -47.299387,2.51571 -70.926362,4.52952 -24.82309,9.00473 -24.250403,-41.26919 -1.204165,-30.63723 13.168986,5.29676 31.478589,-0.20717 39.781087,4.81276 12.6636,-2.94191 27.25189,-3.98456 27.82244,-6.34213 11.38792,-12.96078 35.73776,-4.13643 45.02497,-23.23957 13.33865,-24.60442 -25.64448,-30.04844 -23.46523,-54.09452 -7.3772,-14.86519 10.50998,-52.38332 15.21691,-19.70428 7.39013,16.90246 17.07773,33.7437 26.04078,49.73477 -12.61182,-3.73095 10.87719,15.26047 3.84848,-1.92284 9.92083,9.20357 3.41807,-22.65652 5.67187,-29.63946 -1.45083,-24.93311 -20.74573,-42.31218 -34.46766,-61.10083 -6.03067,-15.935361 -20.17391,-34.910259 -9.62677,-51.475214 19.03329,1.200005 22.79942,28.942362 32.14512,43.256582 12.99911,14.719092 28.1304,29.794892 26.95936,52.011812 -5.11252,25.78411 32.63037,23.70022 25.98119,-1.77367 4.20408,-19.38672 7.40792,-45.19369 19.9189,-58.625576 18.06503,8.045021 6.41012,42.715116 35.34353,38.100516 7.71207,0.51317 21.52284,-2.70371 30.49565,-5.68288 11.91938,-3.02858 33.5822,-4.44813 42.13737,7.47459 3.93786,19.61979 -23.61368,24.87835 -31.31382,24.66847 -13.96351,1.31928 -24.10618,4.88759 -41.8652,6.73089 -22.8225,1.55442 -22.09269,33.76332 -43.34802,41.51871 -7.21668,-0.33267 -4.09565,28.23298 -3.95214,10.06346 3.98218,14.18618 27.52661,21.97364 37.94455,23.19313 15.80184,5.07802 37.22223,-1.79228 46.16646,4.34829 -1.03438,-3.23939 19.06002,5.07342 25.92993,1.88595 11.36657,-1.68597 21.20295,-5.82458 37.13418,-3.45812 17.32153,-4.6869 32.02389,-3.02197 45.29964,3.12612 17.70439,-17.07294 34.54966,12.38106 19.11798,25.41484 -12.24345,6.28597 -25.27172,-11.70144 -34.48377,-6.44473 -10.05853,-2.59344 -23.89393,4.17825 -24.10583,-0.31383 -7.17692,-1.54675 -2.78593,3.58803 -9.65246,-1.63106 -1.32433,5.54043 -10.23067,-1.3262 -12.0787,4.09376 -13.32555,2.72663 -12.84546,5.9964 -26.13463,7.49993 3.07678,-0.68108 -19.76816,3.90359 -19.51172,2.66661 -7.22809,-9.68239 -26.19659,-5.38751 -43.38658,-2.28995 -15.98718,-7.4304 -42.60926,-17.22155 -37.47372,11.90032 -3.39818,18.47843 6.99405,29.27679 20.38639,38.35771 13.67293,16.52582 21.56002,35.56384 36.57659,51.65972 10.73932,21.06563 28.49076,34.95041 37.0184,57.4264 8.59783,5.08054 8.71167,25.47577 -4.15618,21.3385 z m -23.015,-60.769 c -3.41716,-2.33874 -1.9006,3.35847 0,0 z m -200.48,-116.96 c -4.83477,-2.44116 -1.46646,3.23845 0,0 z m 325.48,-9.6444 c -3.41716,-2.33873 -1.9006,3.35848 0,0 z m -66.729,-1.3582 c -1.24348,-5.8983 -3.2901,2.81629 0,0 z m 4.4107,-3.9191 c -3.61207,-3.95051 -7.36791,6.38549 0,0 z m 5.5893,-0.23448 c -2.49834,-5.45662 -1.69034,5.17733 0,0 z m -208,-80.171 c -3.6969,-6.89717 -2.68987,3.24713 0,0 z m 118.53,-20.149 c -3.54125,0.23618 -2.33784,6.09769 0,0 z m 57.474,-10.052 c -1.05189,-4.98173 -2.26928,5.42092 0,0 z m -23.75,-25.422 c -4.83479,-2.44118 -1.46644,3.23848 0,0 z m -278.98,159.02 c 6.999833,-2.73276 0.550414,3.31037 0,0 z m 6.9947,-0.0399 c 9.880155,-2.57519 2.384618,2.82256 0,0 z m 53.549,-1.5672 c 5.39781,-1.99181 -1.15895,3.39101 0,0 z m 32.688,-15.122 c 3.18076,-5.30028 0.0441,5.20602 0,0 z m 196.99,-24.373 c 6.35437,-4.56686 7.05611,5.45441 0,0 z m -197.41,-72.338 c 0.98044,-5.78889 0.34653,7.13574 0,0 z m 147.42,-5.5457 c 0.10438,-5.70853 3.36351,5.60501 0,0 z m 74.132,-22.376 c 2.09839,-5.18964 4.54418,5.15641 0,0 z m -214.55,-6.164 c 0.98039,-5.78903 0.34658,7.13569 0,0 z m 146.73,-8.2776 c 5.39776,-1.99184 -1.15891,3.39104 0,0 z m -150.73,-58.27 c 0.98041,-5.789018 0.34657,7.135753 0,0 z m 12.524,-13.932 c 3.79251,-5.056021 1.43195,4.945454 0,0 z"
     id="path2" />
</svg>
