<?xml version="1.0" encoding="UTF-8"?>
<svg width="500" height="500" version="1.1" viewBox="0 0 500 500" xmlns="http://www.w3.org/2000/svg">
 <path d="m375.11 430.73c-18.156-6.7551-29.925-23.846-44.156-35.078-12.088-14.076-29.218-21.673-41.831-35.119-18.766-9.7134-25.423-32.492-44.706-40.686-18.063-5.7808-36.624 7.7059-49.649 19.101-17.646 5.8871-31.623 18.771-48.855 23.889-19.179 5.1047-28.883 38.284-49.782 27.729-14.241-19.638 16.573-30.041 17.815-48.922 14.27-16.415 11.368-41.157 26.91-57.404 14.571-20.995-5.3885-41.094-23.207-49.698-15.369-11.328-27.192-26.203-43.74-35.348-13.654-12.108-41.982-16.655-38.656-39.761 13.912-16.403 41.339 5.411 54.996-2.0901 8.666-2.0314 19.224-1.9139 34.148-2.7456 12.827 2.4005 7.4295-1.1022 11.806 0.94502 19.198-3.4154 39.364 1.0397 57.017-8.2428 6.9068-14.656 7.2023-31.924 20.298-43.457 1.09-20.757 20.221-33.297 30.595-50.405 21.281-7.4981 21.675 24.3 29.223 36.951 14.543 17.323 7.4688 44.502 25.458 58.829 22.314 4.4867 45.614 6.0873 68.211 2.8215 22.809 0.55224 46.5-3.1269 68.171 5.7355 13.2-1.0549 46.824 6.9775 28.482 24.527-15.661 12.293-32.119 22.544-46.994 35.464-20.085 8.1118-36.579 22.778-53.968 35.009-15.546 3.2169-22.778 15.46-10.356 27.317 7.8946 17.888 9.4755 38.417 18.715 56.129 6.7255 16.92 6.305 34.84 11.852 53.558 11.286 11.761 11.827 38.567-7.8 40.952zm-22.313-47.043c15.616-13.366 0.38359-38.582-5.4588-54.203-8.3823-16.138-1.5938-45.024-24.279-50.758-17.177 1.8278-32.835 15.019-51.252 18.891-13.85 20.363 8.2404 31.873 20.859 39.612 14.815 11.928 28.835 25.151 44.145 36.525 2.7874 3.0878 13.973 12.869 15.986 9.9332zm-199.89-44.934c19.909-6.9454 37.019-19.755 54.134-31.614 14.832-20.02-23.693-15.211-28.93-31.344-19.186-12.73-18.196 23.746-30 32.316-4.8522 8.2785-13.39 33.125 4.7964 30.643zm94.086-47.178c16.989-11.501 34.768-20.221 55.294-23.996 20.809-11.78 4.9947-37.283-3.4635-51.772-12.467-13.933-7.2877-40.778-32.019-39.759-21.138 1.6241-44.393 0.43805-63.361 9.3045-7.8201 15.912-14.614 32.6-24.303 47.618-10.158 23.233 21.746 33.182 36.606 43.187 11.6 4.6666 16.974 19.359 31.246 15.418zm46.534-22.123c6.0714-1.4465-1.4263 2.1379 0 0zm42.117-30.271c20.34 8.3586 27.96-16.999 44.533-21.756 16.298-11.329 46.032-18.759 42.391-42.461-18.913-1.6134-37.08-7.141-55.969-1.069-20.133 7.138-41.072-3.9657-59.884 6.8346-4.388 19.002 15.024 29.447 19.07 47.19 1.2473 4.9721 3.2098 12.28 9.8601 11.262zm-180.48-4.0303c11.462-7.6754 11.768-31.512 24.614-41.841 1.0976-22.66-28.354-19.657-43.559-18.15-13.989 2.3983-54.817 2.85-34.058 24.452 16.247 8.294 34.452 13.202 42.229 31.57 2.4231 3.1938 6.7012 5.7737 10.774 3.9686zm78.036-81.955c14.337-1.9155 42.95 4.4808 37.793-19.992-10.041-15.064-9.8388-40.232-28.417-47.316-14.939 12.909-13.011 35.597-27.48 50.249-3.2272 10.882 6.7089 22.876 18.104 17.059z"/>
</svg>
