<?xml version="1.0" encoding="UTF-8"?>
<svg width="500" height="500" version="1.1" viewBox="0 0 500 500" xmlns="http://www.w3.org/2000/svg">
 <path d="m277 440.57c6.0714-1.4465-1.4263 2.1379 0 0zm-5-2c6.0714-1.4465-1.4263 2.1379 0 0zm3.642-0.39056c-15.188-8.6782-8.0043-31.091-9.4995-46.476-0.44609-13.456-8.2357-44.589 15.924-36.133 7.3205 17.837 0.4621 39.012 5.3412 58.007 2.5236 7.93 1.6792 28.978-11.765 24.602zm11.624-47.51c1.0476-3.6713 0.27633 4.4999 0 0zm-205.35-8.8467c-19.109-15.085 4.0608-31.697 20.91-27.49 14.793-6.1422 39.881-28.929 52.661-10.4-12.706 16.876-36.067 23.539-54.669 33.527-5.1569 4.108-12.417 6.8764-18.902 4.3624zm317.32-53.519c-13.142-5.1993-26.827-32.294-3.0284-23.455 8.7024 4.0607 24.012 26.181 3.0284 23.455zm-194.3-13.713c-17.646-5.7482-35.733-13.171-49.37-26.899-9.7928-15.225-19.824-33.693-16.361-51.67 3.8362-22.502 11.116-41.89 27.068-58.214 10.943-14.466 21.055-33.096 41.89-40.512 19.8-11.527 37.455 4.2789 53.71 11.424 16.008 11.623 35.79 16.897 52.41 28.463 14.915 10.773 27.7 29.836 21.762 48.744-2.7146 15.403-12.88 28.623-20.503 42.531-12.143 14.47-28.445 25.52-44.805 34.87-18.953 7.3147-38.884 11.389-59.66 10.05-1.4108-3.8341-6.2072 3.5582-6.1423 1.2139zm19.612-22.561c21.579-1.4741 44.19-8.3246 60.477-23.43 20.941-7.9409 26.05-32.07 31.276-50.994-0.14098-23.426-24.326-27.893-38.866-38.234-21.187-6.6456-38.739-26.356-62.244-22.701-21.994 10.113-32.938 33.013-45.905 52.214-12.413 16.343-13.132 36.848-4.3027 55.512 7.5241 18.652 27.422 21.766 43.643 28.588 4.5889-3.3776 12.785 4.5512 15.921-0.95563zm-128.36-107.41c-11.21-18.075-27.503-30.831-41.812-47.095-4.9025-11.55-32.135-27.014-11.074-34.877-2.2125 0.82472 15.293 3.524 16.989 13.093 14.995 12.129 27.59 27.001 40.913 41.472 6.7438 6.6493 12.345 33.401-5.0152 27.407zm-14.655-17.91c-1.2397-6.8804 3.2476 5.3844 0 0zm364.77-7.3235c-19.315-2.8508-32.626-5.9339-50.778-10.881-12.47 1.186-41.008 8.6836-41.779-5.9105 6.4927-18.789 27.702-18.278 43.947-15.901 17.079 6.5957 32.636 15.08 51.899 12.219 17.019-2.6024 30.638 15.902 8.0773 19.514-3.0444 1.9747-9.8303-0.27569-11.367 0.95956zm-194.73-44.484c-6.6138-16.968 13.042-35.027 26.718-42.375 25.749 4.0794-0.88768 27.365-8.6465 36.88-4.0822 7.7278-16.032 5.7532-18.071 5.495z"/>
</svg>
