<?xml version="1.0" encoding="UTF-8" standalone="no"?>
<svg
   xmlns:dc="http://purl.org/dc/elements/1.1/"
   xmlns:cc="http://creativecommons.org/ns#"
   xmlns:rdf="http://www.w3.org/1999/02/22-rdf-syntax-ns#"
   xmlns:svg="http://www.w3.org/2000/svg"
   xmlns="http://www.w3.org/2000/svg"
   xmlns:sodipodi="http://sodipodi.sourceforge.net/DTD/sodipodi-0.dtd"
   xmlns:inkscape="http://www.inkscape.org/namespaces/inkscape"
   version="1.1"
   id="svg10"
   width="550"
   height="415"
   viewBox="0 0 550 415"
   sodipodi:docname="tshirt2.svg"
   inkscape:version="1.0 (4035a4fb49, 2020-05-01)">
  <metadata
     id="metadata16">
    <rdf:RDF>
      <cc:Work
         rdf:about="">
        <dc:format>image/svg+xml</dc:format>
        <dc:type
           rdf:resource="http://purl.org/dc/dcmitype/StillImage" />
        <dc:title />
      </cc:Work>
    </rdf:RDF>
  </metadata>
  <defs
     id="defs14" />
  <sodipodi:namedview
     inkscape:document-rotation="0"
     pagecolor="#ffffff"
     bordercolor="#666666"
     borderopacity="1"
     objecttolerance="10"
     gridtolerance="10"
     guidetolerance="10"
     inkscape:pageopacity="0"
     inkscape:pageshadow="2"
     inkscape:window-width="1920"
     inkscape:window-height="1017"
     id="namedview12"
     showgrid="false"
     inkscape:zoom="1.2581935"
     inkscape:cx="265.05346"
     inkscape:cy="259.46739"
     inkscape:window-x="-8"
     inkscape:window-y="-8"
     inkscape:window-maximized="1"
     inkscape:current-layer="g18" />
  <g
     inkscape:groupmode="layer"
     inkscape:label="Image"
     id="g18">
    <path
       d="m 164.20187,14.039901 c -17.4065,6.657405 -25.67042,29.143377 -40.99023,40.478515 -10.05007,11.461603 -22.46107,22.033467 -37.030165,25.734553 -14.170709,6.851894 -27.774747,16.812369 -44.311639,20.007631 -13.257095,0.70115 -29.810711,19.17932 -23.224059,32.66766 9.629904,15.85606 22.607897,28.01618 26.095153,46.99445 3.756173,12.66207 10.065293,19.67945 18.232176,29.02131 5.311227,8.81265 2.118713,34.98598 19.619383,20.69549 10.207724,-13.99298 25.971371,-23.01283 39.762231,-31.30058 12.06832,-6.06786 22.35992,-16.16643 36.7202,-16.62134 18.79905,1.81669 15.01549,28.67181 11.59924,41.23671 -3.73282,15.35137 1.38079,31.67773 -1.31909,46.67262 1.09331,14.70157 -3.50957,31.01787 -2.76248,46.00474 5.45815,12.96879 1.03993,29.57065 -4.0527,36.42838 -11.03681,14.52634 18.1752,17.63846 25.55926,25.64697 15.7541,7.20611 37.50842,6.64272 56.56334,5.87278 12.65727,-1.48573 24.59047,1.33876 37.45678,0.12983 17.35614,0.13588 33.78474,0.29604 51.15565,-0.89455 16.54853,7.48114 27.93473,-9.98935 36.81429,-22.20535 10.25881,-11.26456 -0.43208,-26.1404 3.43841,-39.21147 -0.43136,-14.37937 -1.7516,-29.38758 0.36186,-44.07131 0.36907,-13.39793 1.34538,-23.50918 -5.10937,-36.20117 1.3289,-12.78422 -1.2178,-27.31051 0.70288,-40.47488 8.51504,8.76045 23.45044,10.20562 31.22811,20.33347 10.86854,6.45768 13.9918,19.23338 22.73672,28.16829 12.36866,4.65631 23.76962,12.78066 36.7183,15.55389 11.06649,1.37309 22.16316,-12.11051 22.85127,-24.33603 4.14197,-15.89044 20.76182,-25.68966 24.42171,-42.50519 -0.7885,-16.20512 14.12845,-23.01441 20.29607,-34.25781 12.84534,-15.99304 -12.35241,-21.54113 -23.06446,-28.20637 C 494.04238,122.09264 474.8899,122.8233 464.9422,108.57692 454.43606,98.855588 442.45301,93.045063 432.12384,82.79958 416.95437,77.335487 406.90722,66.259136 393.20021,57.081735 377.08415,55.052111 374.32947,35.749609 357.22344,33.252751 c -10.88329,-1.25561 -28.01644,0.07456 -33.44266,13.400833 -11.30685,15.942337 -32.94922,12.037646 -49.51134,12.067727 -13.85299,-2.519478 -29.65227,-1.800394 -44.21877,-2.135448 -8.09745,-0.539518 -33.1069,0.738599 -14.11623,8.030384 16.09106,3.179067 33.19276,0.582574 49.39643,5.589633 15.42916,0.06525 32.13712,11.841344 46.11742,2.504374 13.28967,-10.109845 28.53845,-20.950819 46.83776,-20.370545 16.32548,7.109653 26.14341,18.700914 41.82244,27.371095 14.5876,5.631716 28.66784,15.977127 41.31027,27.235546 12.82437,11.94642 26.03329,22.52422 41.58203,30.79687 10.41836,9.09119 28.05228,8.05959 35.86893,19.57147 -10.24441,10.91931 -13.54561,26.32457 -26.24784,35.01642 -8.96026,10.64833 -12.28583,22.4481 -16.54963,34.02276 1.45076,16.70164 -19.52942,29.17957 -33.52488,17.16958 -13.10732,-6.44615 -18.58352,-19.98616 -31.20938,-26.21126 -8.81828,-9.05406 -19.43689,-17.49543 -29.23759,-26.37561 -11.5136,-4.87972 -16.83219,-36.27732 -33.45464,-21.98793 -3.32219,12.9829 4.07341,25.69212 4.10579,37.51711 5.87632,7.28332 6.94894,24.48926 3.82535,36.1878 -2.76266,16.24162 8.18382,33.23232 5.75786,50.6131 -6.9474,16.60448 -0.63643,33.77997 -4.44529,50.38281 -5.30352,21.09751 -29.66467,26.17144 -48.00723,25.28567 -16.77555,1.10362 -33.41182,2.82015 -51.05332,1.48395 -10.2464,0.71858 -19.54497,-1.10589 -29.8045,-2.3587 -15.37359,1.26304 -35.01302,0.77068 -44.44745,-11.96356 -5.81559,-14.21034 -6.07973,-27.46683 -3.88911,-41.74621 -1.66998,-13.2236 0.008,-23.10439 -0.42851,-35.90184 0.55258,-16.05277 4.28163,-32.24321 1.99129,-47.88359 3.67714,-15.70542 2.57031,-30.74491 2.50701,-47.49745 6.37938,-19.95641 -18.82965,-26.23014 -31.09248,-14.34364 -16.62099,3.76833 -31.32343,14.08091 -46.29616,21.99897 -11.687174,7.36494 -20.480798,15.91687 -29.745881,24.71024 C 67.512243,205.83728 59.892615,193.60504 57.373141,180.22323 58.407802,165.25164 42.494578,159.74303 38.777995,145.64956 30.23912,131.39965 36.222393,107.80966 56.344413,107.17105 72.941318,108.67296 83.574886,96.16141 96.71707,88.693606 113.77192,86.7683 122.1882,69.589072 137.30145,62.126127 148.52555,47.833132 164.2378,38.265572 182.43166,38.33258 179.53002,29.108088 174.39692,16.998942 164.20187,14.039901 Z"
       style="fill:#000000"
       id="path22" />
  </g>
</svg>
