<?xml version="1.0" encoding="UTF-8" standalone="no"?>
<svg
   xmlns:dc="http://purl.org/dc/elements/1.1/"
   xmlns:cc="http://creativecommons.org/ns#"
   xmlns:rdf="http://www.w3.org/1999/02/22-rdf-syntax-ns#"
   xmlns:svg="http://www.w3.org/2000/svg"
   xmlns="http://www.w3.org/2000/svg"
   xmlns:sodipodi="http://sodipodi.sourceforge.net/DTD/sodipodi-0.dtd"
   xmlns:inkscape="http://www.inkscape.org/namespaces/inkscape"
   version="1.1"
   id="svg10"
   width="520"
   height="440"
   viewBox="0 0 520 440"
   sodipodi:docname="tshirt.svg"
   inkscape:version="1.0 (4035a4fb49, 2020-05-01)">
  <metadata
     id="metadata16">
    <rdf:RDF>
      <cc:Work
         rdf:about="">
        <dc:format>image/svg+xml</dc:format>
        <dc:type
           rdf:resource="http://purl.org/dc/dcmitype/StillImage" />
        <dc:title></dc:title>
      </cc:Work>
    </rdf:RDF>
  </metadata>
  <defs
     id="defs14" />
  <sodipodi:namedview
     inkscape:document-rotation="0"
     pagecolor="#ffffff"
     bordercolor="#666666"
     borderopacity="1"
     objecttolerance="10"
     gridtolerance="10"
     guidetolerance="10"
     inkscape:pageopacity="0"
     inkscape:pageshadow="2"
     inkscape:window-width="1920"
     inkscape:window-height="1017"
     id="namedview12"
     showgrid="false"
     inkscape:zoom="1.2581935"
     inkscape:cx="16.594008"
     inkscape:cy="271.5535"
     inkscape:window-x="-8"
     inkscape:window-y="-8"
     inkscape:window-maximized="1"
     inkscape:current-layer="g18" />
  <g
     inkscape:groupmode="layer"
     inkscape:label="Image"
     id="g18">
    <path
       d="m 164.38928,11.936929 c -13.2638,3.483776 -27.20482,3.947528 -41.23311,6.875033 -19.10234,-4.93557 -30.645647,18.8681 -50.614547,16.826142 -12.936942,0.134809 -24.984791,3.523798 -37.283478,2.606733 -15.925077,2.352435 -27.9633804,19.751276 -28.4248715,34.254977 2.920049,17.344096 2.4422056,34.550726 4.4483645,51.084566 2.926109,13.19656 13.360799,28.12566 28.733508,29.63504 13.693512,0.58032 28.734304,1.66342 41.009842,-3.35726 13.749855,-9.90054 45.238772,-7.28281 40.594762,16.47909 5.00974,16.06501 -6.2756,32.23257 -0.68141,49.91992 0.24246,13.28863 -0.63581,25.76295 -2.4101,39.85547 2.56277,11.87328 -4.65141,25.7687 3.1649,36.204 -6.40892,10.03067 0.0295,26.3587 -2.75315,37.63377 -3.99336,14.07021 1.03981,29.4538 -0.0367,42.4884 6.49643,12.56452 -0.94339,31.31749 14.5188,36.45195 12.17467,2.60902 19.02906,10.76407 32.6433,12.22973 14.57889,5.83144 29.93012,5.17091 45.12039,4.88401 15.43888,-0.6913 30.18092,-0.65104 46.68212,-3.03807 15.82221,2.08529 29.68514,3.69255 44.85105,-0.25156 15.50715,-3.44024 31.38566,-3.54312 46.94215,-1.5317 15.29,0.96438 21.25836,-18.43545 18.31034,-31.53686 2.09848,-18.38678 2.63171,-36.49834 -0.75424,-54.66074 0.85446,-14.23376 -2.02132,-28.70155 -1.70453,-43.40592 -0.54872,-14.55993 -1.81082,-29.07964 -3.47722,-42.60599 -1.26751,-13.02221 -9.96822,-26.10227 -7.48949,-40.61503 0.85936,-14.52208 -5.74308,-32.22082 5.87693,-42.13445 11.84822,-10.45916 30.03941,-2.47907 40.38594,5.61896 14.19444,5.87832 32.36717,4.83928 42.9863,16.86899 11.42,5.92655 29.63327,5.21531 39.48945,3.13575 13.62341,-2.29559 17.75671,-14.03498 23.11357,-23.38175 5.53307,-14.75805 1.43159,-15.48111 -3.50876,-29.02124 -7.00096,-11.58 -15.72122,-21.3471 -26.58613,-29.61417 -11.47053,-8.62878 -22.61377,-17.895404 -34.32174,-26.522536 -13.35807,-3.802535 -27.94952,-6.565249 -34.76758,-19.83594 -13.90216,-5.766978 -28.21185,-11.519685 -40.67188,-20.08594 -13.45824,-11.698448 -28.7339,-1.707198 -37.80341,9.3554 -15.41949,9.956401 -32.90773,13.573342 -49.35674,20.4708 C 261.37926,79.098466 246.15911,69.53932 231.0327,61.253103 215.73999,51.388915 204.52636,36.356794 190.23738,26.414549 184.48931,17.387955 173.97885,15.21019 164.38928,11.936929 Z m -15.23242,11.810547 c 13.10339,2.078598 30.17316,-0.0011 36.13476,14.933598 10.35771,9.666431 20.47795,22.914779 32.85622,32.01385 11.15563,7.912552 23.5738,16.299922 38.468,16.40024 15.34297,-0.287147 33.8702,4.536922 47.01106,-5.110045 12.88073,-7.778362 24.8962,-14.693891 38.7789,-19.29432 17.48142,-15.533794 34.60694,-2.053778 48.72849,7.641035 13.13539,5.691614 23.98516,14.898334 36.40343,21.70864 12.86016,11.162686 27.80075,18.468146 40.17442,29.597596 12.38541,10.09615 27.95512,16.90248 27.5912,35.99029 -1.53777,21.18261 -23.76718,24.60128 -40.64463,19.35933 -10.10098,-9.69317 -26.41346,-7.84269 -36.54757,-14.16413 -11.99774,-4.20165 -25.41954,-5.3452 -37.77069,-10.54086 -11.62651,-2.41338 -24.79346,-4.66608 -33.5577,2.44679 -7.59591,13.41409 -2.9197,27.09203 -4.96749,41.26422 0.32749,11.2836 4.8617,22.66795 7.08183,33.90183 -0.56052,19.13701 3.11755,36.91568 4.80072,56.17578 0.93562,13.58421 2.06803,30.12478 3.70772,45.21024 2.98698,15.19934 -3.13762,30.60128 1.06962,45.39523 2.92834,14.80214 -8.33803,34.51492 -25.13671,31.19727 -15.54286,3.16685 -31.55329,-0.0101 -47.96564,0.009 -15.58175,-1.39626 -33.03419,1.33833 -49.97411,2.16861 -17.45253,1.7424 -30.67778,-3.91413 -47.45283,-2.97076 -17.23388,-1.26561 -35.78563,0.47611 -47.0918,-13.9355 -11.78508,-12.10189 -11.02287,-31.0974 -12.51781,-46.7332 0.1651,-12.39809 2.69942,-26.7146 -1.93112,-39.22457 5.94401,-14.42917 2.56138,-31.43289 3.34659,-45.91121 2.72241,-12.3105 2.46855,-27.39979 1.31535,-40.94849 0.96729,-13.92782 3.89801,-27.82995 -0.62134,-41.89877 -0.30041,-14.14197 12.53888,-26.7595 -1.86897,-36.70635 -5.13429,-14.93879 -19.82299,-12.16892 -32.169823,-8.53135 C 82.427794,128.4336 74.362435,147.34175 59.321399,143.69568 36.698918,141.98515 20.985721,120.37539 22.883764,98.645094 19.542651,83.410824 20.846222,62.004682 34.084387,51.610424 c 10.255659,-3.65077 22.147165,-4.917958 33.085936,-3.27343 15.81495,-1.067396 29.675454,-3.445403 44.120127,-10.676049 10.51066,-6.648441 25.45862,-9.047338 37.86641,-13.913469 z"
       style="fill:#000000"
       id="path22" />
  </g>
</svg>
