<?xml version="1.0" encoding="UTF-8" standalone="no"?>
<svg
   xmlns:dc="http://purl.org/dc/elements/1.1/"
   xmlns:cc="http://creativecommons.org/ns#"
   xmlns:rdf="http://www.w3.org/1999/02/22-rdf-syntax-ns#"
   xmlns:svg="http://www.w3.org/2000/svg"
   xmlns="http://www.w3.org/2000/svg"
   xmlns:sodipodi="http://sodipodi.sourceforge.net/DTD/sodipodi-0.dtd"
   xmlns:inkscape="http://www.inkscape.org/namespaces/inkscape"
   inkscape:version="1.0 (4035a4fb49, 2020-05-01)"
   sodipodi:docname="wristwatch_ZGoEYKCK_thumbnail.svg"
   viewBox="0 0 500 500"
   height="500"
   width="500"
   id="svg1573"
   version="1.1">
  <metadata
     id="metadata1579">
    <rdf:RDF>
      <cc:Work
         rdf:about="">
        <dc:format>image/svg+xml</dc:format>
        <dc:type
           rdf:resource="http://purl.org/dc/dcmitype/StillImage" />
        <dc:title></dc:title>
      </cc:Work>
    </rdf:RDF>
  </metadata>
  <defs
     id="defs1577" />
  <sodipodi:namedview
     inkscape:current-layer="g1581"
     inkscape:window-maximized="1"
     inkscape:window-y="-8"
     inkscape:window-x="-8"
     inkscape:cy="304.14354"
     inkscape:cx="-167.09558"
     inkscape:zoom="0.82453316"
     showgrid="false"
     id="namedview1575"
     inkscape:window-height="1017"
     inkscape:window-width="1920"
     inkscape:pageshadow="2"
     inkscape:pageopacity="0"
     guidetolerance="10"
     gridtolerance="10"
     objecttolerance="10"
     borderopacity="1"
     bordercolor="#666666"
     pagecolor="#ffffff" />
  <g
     id="g1581"
     inkscape:label="Image"
     inkscape:groupmode="layer">
    <path
       sodipodi:nodetypes="scccccccccccccccccccssscccccsscccccccccccccccccccccccccccccccc"
       d="m 256.85123,472.89994 c -15.67999,-2.20752 -39.05603,-0.28946 -38.60752,-22.46773 -3.75514,-15.86248 -0.0579,-34.15215 1.00922,-48.93852 -0.0704,-11.802 2.32344,-26.37821 2.60548,-38.18113 -0.27126,-16.00816 7.96141,-27.00221 2.01293,-43.79872 -5.30514,-15.7023 -25.52061,-10.35266 -34.02005,-22.0165 -9.59052,-15.08204 -8.77322,-33.80396 -6.52819,-50.77676 -1.26261,-19.94683 8.17252,-36.4156 22.95911,-48.96416 8.35108,-8.1012 27.1042,-21.18059 20.71678,-38.11555 -5.5342,-14.61823 -5.6111,-32.16225 -5.39358,-48.49957 -2.35149,-13.644909 -2.97555,-26.628413 -1.62669,-41.297616 -3.46631,-13.141755 2.99566,-29.272834 19.36204,-32.654391 14.52254,-2.370658 31.4021,-5.02768 45.83091,-1.913703 9.20523,9.303834 22.77037,19.239494 20.59691,36.073587 2.58042,23.593885 2.69708,43.375943 2.09735,67.844203 0.35692,19.51388 -6.68969,39.17135 0.36193,58.22881 10.91903,10.35023 18.57105,25.5345 18.08435,41.8247 0.23558,16.19328 3.22945,36.28199 -10.18787,48.29904 -10.65239,11.24243 -21.63988,24.41991 -27.36413,38.55199 1.47454,40.69303 0.75864,81.51734 -0.80441,122.21317 4.00532,19.07277 -16.27183,24.40045 -31.10461,24.58885 z m -2.91459,-20.49592 c 16.3706,-4.62852 19.66487,-25.4523 18.78634,-38.30053 -2.13661,-13.45644 0.0382,-27.10357 -0.60109,-42.40623 0.0434,-14.03545 5.24538,-34.34397 -8.76595,-43.33197 -15.18726,4.33203 -17.91172,23.32072 -22.11543,36.3569 -4.11235,18.04439 -3.07486,36.64102 -5.79383,54.77732 -3.52849,14.13245 -2.0441,35.94343 18.48993,32.90451 z m 34.5977,-75.74029 c -2.14478,-0.43261 1.43919,4.30116 0,0 z m -64.30155,-27.36444 c -0.0849,-4.24889 -2.65869,5.79939 0,0 z m 22.61844,-46.33194 c 13.18067,-4.77988 29.62554,-4.36952 40.14934,-12.26544 7.30482,-11.13521 21.53683,-19.02034 22.70257,-33.44104 -0.27209,-14.48787 2.77665,-32.9857 -12.12465,-41.72817 -8.26485,-7.38492 -15.48546,-23.10069 -29.47183,-12.52265 -15.48661,-2.63548 -32.09849,-3.9626 -43.46171,9.70418 -12.93261,7.48071 -20.81837,17.73331 -23.78298,33.0598 -0.72384,14.27865 -4.80638,33.8081 8.61798,43.59126 11.28028,6.23391 21.63841,17.72563 36.21334,13.92501 l 0.89702,-0.25018 z m 6.5,-33.27878 c -18.24753,2.13115 -14.5082,-23.6444 -10.33182,-34.25524 10.92518,-37.64996 15.23979,14.5655 27.45935,13.56303 36.53136,9.54753 -5.02473,23.25708 -17.12753,20.69221 z m 9.25,-0.49962 c 5.81974,-2.04216 0.86185,2.17782 0,0 z m -6.02083,33.05811 c -3.03003,-1.43141 -2.42551,2.11393 0,0 z m 15.66801,-124.66532 c 15.49142,-10.58521 18.63546,-30.47333 18.22981,-47.69484 -2.82567,-16.98707 -1.11932,-33.53568 -0.86311,-50.582156 0.0677,-18.708194 -18.58514,-27.61001 -35.26971,-23.031577 -18.07996,1.085438 -19.01696,23.064816 -15.8585,36.519036 1.34533,17.909237 2.75297,36.018187 7.05233,53.417967 2.85685,14.59231 5.96872,37.00115 26.70918,31.37157 z m -52.20223,177.76949 c 0.86887,-5.57216 0.27478,6.6892 0,0 z"
       style="fill:#000000"
       id="path1585" />
  </g>
</svg>
