<?xml version="1.0" encoding="UTF-8" standalone="no"?>
<svg
   xmlns:dc="http://purl.org/dc/elements/1.1/"
   xmlns:cc="http://creativecommons.org/ns#"
   xmlns:rdf="http://www.w3.org/1999/02/22-rdf-syntax-ns#"
   xmlns:svg="http://www.w3.org/2000/svg"
   xmlns="http://www.w3.org/2000/svg"
   xmlns:sodipodi="http://sodipodi.sourceforge.net/DTD/sodipodi-0.dtd"
   xmlns:inkscape="http://www.inkscape.org/namespaces/inkscape"
   inkscape:version="1.0 (4035a4fb49, 2020-05-01)"
   sodipodi:docname="tshirt2.svg"
   viewBox="0 0 520 440"
   height="440"
   width="520"
   id="svg10"
   version="1.1">
  <metadata
     id="metadata16">
    <rdf:RDF>
      <cc:Work
         rdf:about="">
        <dc:format>image/svg+xml</dc:format>
        <dc:type
           rdf:resource="http://purl.org/dc/dcmitype/StillImage" />
        <dc:title />
      </cc:Work>
    </rdf:RDF>
  </metadata>
  <defs
     id="defs14" />
  <sodipodi:namedview
     inkscape:current-layer="g18"
     inkscape:window-maximized="1"
     inkscape:window-y="-8"
     inkscape:window-x="-8"
     inkscape:cy="395.45427"
     inkscape:cx="-57.488977"
     inkscape:zoom="0.91333333"
     showgrid="false"
     id="namedview12"
     inkscape:window-height="1017"
     inkscape:window-width="1920"
     inkscape:pageshadow="2"
     inkscape:pageopacity="0"
     guidetolerance="10"
     gridtolerance="10"
     objecttolerance="10"
     borderopacity="1"
     bordercolor="#666666"
     pagecolor="#ffffff"
     inkscape:document-rotation="0" />
  <g
     id="g18"
     inkscape:label="Image"
     inkscape:groupmode="layer">
    <path
       id="path22"
       style="fill:#000000"
       d="m 164.38928,11.936929 c -1.3575,0.663747 -2.92215,0.475385 -4.33984,0.132813 -0.8184,1.154797 -2.09298,1.877507 -3.47071,2.132812 -0.53148,0.03941 -1.24165,0.754887 -1.63455,0.273794 -0.31756,-0.324565 -0.93239,-0.04458 -1.3346,-0.328756 -0.46984,-0.04371 -0.91012,-0.667387 -1.30019,-0.189299 -1.49832,1.064532 -3.61613,1.441592 -5.25995,0.504027 -1.25965,1.672556 -3.73069,2.053996 -5.55469,1.154296 -2.42247,0.862991 -5.02142,0.868175 -7.55469,1.0625 -1.14548,1.670729 -3.62665,1.954804 -5.32226,0.996094 -0.9227,0.476167 -2.01637,0.617932 -3.02539,0.363282 -1.53862,0.685926 -3.29867,1.105191 -4.97807,0.814405 -0.67809,-0.142431 -1.30707,-0.480073 -1.83248,-0.927687 -1.14767,1.383533 -3.28294,1.808541 -4.87109,0.97461 -1.3913,0.338518 -2.80268,-0.195954 -4.19336,-0.02344 -0.7241,2.450926 -3.48055,3.821935 -5.91979,3.429198 -0.55193,-0.124254 -0.93834,0.501978 -1.46869,0.618732 -0.71488,0.316154 -1.4697,0.529835 -2.22676,0.717695 -0.854607,2.012299 -2.860697,3.137749 -4.742187,4.029299 -1.21165,1.95806 -3.47804,2.82088 -5.4707,3.77148 -1.15954,2.0292 -3.68804,2.57914 -5.85547,2.60547 -1.76179,0.0717 -3.43284,0.64954 -5.06303,1.2668 -2.05668,0.65486 -4.33659,1.0569 -6.42916,0.32305 -1.45164,1.54514 -4.07786,2.05009 -5.79687,0.64843 -0.41382,-0.49374 -1.0944,-0.0506 -1.64491,-0.14465 -1.502234,0.0435 -3.017845,-0.1594 -4.439074,-0.65417 -1.92559,0.74151 -3.998475,0.12841 -5.978516,0.37695 -0.929844,0.52691 -1.912235,1.02585 -2.993761,1.18164 -0.546465,0.079 -1.181621,3e-5 -1.072387,0.7709 0.01418,0.6676 -0.846259,0.63529 -1.276796,0.94804 -0.976128,0.50781 -2.08557,1.08172 -3.192496,0.63338 -1.443471,-0.36671 -2.486095,-1.49655 -3.534872,-2.47146 -0.898808,-0.14857 -1.777831,0.32514 -2.673509,0.40793 -3.116031,0.61876 -6.254602,1.15218 -9.330398,1.96512 -0.662407,0.18192 -1.613367,0.4535 -2.3742,0.71401 -2.2787,0.84324 -4.665426,1.5553 -6.670722,2.97153 -0.358269,0.62376 -1.179244,0.88083 -1.269531,1.64649 -0.180684,0.65474 -0.813215,1.13245 -0.68547,1.85165 -0.09621,0.64524 -0.161408,1.41648 -0.571446,1.91834 -0.54017,0.40671 -1.024891,0.92214 -1.506756,1.36673 -0.76758,1.61562 -2.489932,2.48461 -4.058594,3.17578 -0.247064,1.0972 -0.878339,2.09321 -1.730468,2.82226 -0.03734,1.38823 -0.777535,2.67091 -1.7557455,3.59437 -0.325057,0.9644 -1.052161,1.75392 -1.681754,2.48766 0.188486,1.92346 -0.369715,3.8819 -1.281789,5.55665 -0.292878,0.43218 -0.671971,0.80353 -1.097117,1.10546 0.946652,1.08126 1.256159,2.61223 0.908832,3.98867 0.07805,0.66358 -0.243381,1.32644 -0.323373,1.92803 0.437172,0.88428 0.457722,1.91368 0.451646,2.85328 1.153562,2.20514 0.980828,4.77519 0.779301,7.17338 1.082208,1.62492 1.128895,3.71045 1.078288,5.61008 -0.01189,1.29112 -0.137224,2.57763 -0.15446,3.86844 1.178954,1.09542 1.316644,2.76033 1.4758385,4.25868 0.267847,1.51246 0.698563,3.043806 0.604209,4.582206 -0.319863,0.90459 -0.381687,2.00364 -1.2519225,2.60247 0.01042,1.48052 -0.07662,2.96376 -0.302735,4.42773 0.662353,0.9691 0.8690245,2.19664 0.738282,3.33789 0.2920145,0.5339 0.9332025,0.8599 0.8300775,1.55078 0.199987,1.07453 -0.05185,2.21192 -0.490234,3.16211 0.22331,1.10439 0.06171,2.26188 -0.4199215,3.27735 1.4178425,1.32716 1.8543445,3.44756 1.6503895,5.29297 2.198316,1.4849 2.842928,4.5936 1.953125,6.99218 -0.114609,0.49605 0.01672,1.01796 0.454506,1.33531 0.343904,0.32946 0.970765,0.0406 1.417618,0.24115 1.668312,0.30536 2.863535,1.89084 3.262969,3.4738 0.205158,0.59386 0.158879,1.28062 0.306072,1.84921 0.420956,0.37361 0.703317,0.91197 1.051023,1.31342 1.715494,0.12485 3.258357,1.43574 3.693359,3.09375 1.54421,0.95524 2.609159,2.6097 2.921875,4.39063 2.172483,0.54366 4.233995,1.53488 6.089844,2.78125 0.434838,0.25981 0.798235,0.72505 1.212891,0.94336 2.026991,-0.19752 4.311708,-0.80556 6.153205,0.38015 0.378561,0.45042 0.812115,0.4078 1.331094,0.24222 2.130223,-0.48759 4.527999,-0.32799 6.345779,0.94794 1.228961,-0.62724 2.670775,-0.7429 4.005859,-0.50976 0.738893,-0.35617 1.583479,-0.1978 2.341797,-0.30079 1.094318,-0.43674 2.292753,-0.0782 3.283223,0.38008 0.628191,-0.0725 1.259166,0.042 1.873027,0.16875 1.161757,-0.97593 2.672231,-1.68471 4.21875,-1.36328 0.653156,0.0771 1.198457,0.62389 1.861328,0.3457 0.95278,-0.13247 1.91601,-0.16383 2.87695,-0.16015 1.33447,-1.5422 3.73072,-1.71189 5.42906,-0.68724 0.85367,0.5523 1.9264,0.29164 2.88318,0.29102 0.67994,-0.0936 1.43382,-0.15826 2.03347,-0.46316 1.09311,-2.04897 3.67631,-3.12371 5.90234,-2.4707 0.95217,-0.44068 1.98626,-0.71651 3.03711,-0.75391 0.65959,-1.46645 1.86708,-2.77103 3.50195,-3.07812 0.46762,-0.15804 1.01198,-0.0399 1.45313,-0.0781 1.53278,-1.69028 3.99573,-1.5752 6.0846,-1.72484 2.564877,-0.0857 5.162727,-0.13671 7.700547,0.28539 0.65897,0.0868 1.24753,0.54648 1.8711,0.60742 1.78287,-0.20901 3.70095,0.72255 4.46875,2.37696 2.97321,1.3818 5.6504,3.47456 7.67969,6.05859 0.67803,0.95492 1.09069,2.13483 0.98046,3.31445 1.65979,2.96248 1.21171,6.56382 0.44141,9.69336 0.65491,0.64998 0.97396,1.54678 1.21394,2.39863 1.04996,1.37497 1.1854,3.53002 0.005,4.8709 1.40362,1.62519 1.28414,4.17716 -0.0566,5.80664 -0.33914,0.50518 -0.88759,0.92135 -1.22852,1.36524 0.57575,1.28258 1.4152,2.61101 1.08813,4.08655 -0.14419,0.97585 -0.63506,1.9176 -1.42602,2.52087 0.0127,1.32062 -0.44069,2.64967 -1.10742,3.73633 0.90651,2.28392 0.71266,4.93983 -0.5275,7.06622 -0.17323,0.46474 -0.61496,0.92786 -0.62484,1.39472 0.70357,1.3609 0.82957,2.95064 0.62304,4.44921 1.25809,2.0229 1.03334,4.56931 0.55274,6.79688 0.52697,0.84956 0.48751,1.91422 0.42383,2.8457 0.31507,0.81568 0.43201,1.72807 0.38281,2.58203 1.00243,1.03481 0.92644,2.62119 0.56836,3.91016 -0.11977,0.47967 0.27835,1.0001 0.26694,1.52043 0.16139,1.25935 -0.29671,2.54544 -1.17319,3.45027 -0.18365,0.47338 -0.51467,0.96273 -0.74024,1.35352 0.86476,0.98189 1.28151,2.37512 0.95508,3.6582 0.39689,0.80396 0.16237,1.71279 -0.0574,2.50905 0.19526,1.31727 -0.3202,2.7043 -1.29804,3.60228 1.36878,1.63346 1.74096,4.05565 1.01953,6.04688 -0.2814,0.64418 -0.69758,1.2016 -0.79687,1.91015 -0.38653,0.48855 -0.0359,0.90635 0.0933,1.40788 0.21209,0.99546 0.10497,2.07976 -0.38233,2.9847 0.34449,1.89495 -0.41245,3.74881 -0.41407,5.64062 -0.0375,0.63822 -0.29889,1.29045 -0.45117,1.86133 1.04902,1.31895 1.20272,3.22907 0.33008,4.67969 1.03199,1.49953 1.00695,3.69074 -0.21289,5.06641 0.41092,2.05451 0.2341,4.22096 -0.31641,6.23828 0.76559,1.63334 0.17565,3.5676 -0.60534,5.00186 -0.37846,0.93459 -0.27728,1.98287 -0.42005,2.9454 0.75529,1.28066 0.84947,2.90045 0.32618,4.27344 0.092,0.46699 0.72486,0.63039 0.98046,1.0332 0.64339,0.70959 1.0925,1.61919 1.13477,2.58594 0.75046,0.49501 1.25385,1.42706 1.06055,2.32813 1.32812,0.71614 -0.44057,1.33551 0.88755,2.05165 -1.63109,0.22999 -0.26184,0.49329 -1.83287,0.7628 0.35966,1.25012 -0.34365,2.4939 -1.02148,3.50391 -0.16429,0.20232 -0.44546,0.71661 -0.37871,1.12722 -0.13064,1.48584 1.2412,2.51946 1.28496,3.97629 0.0948,0.72099 -0.0105,1.47019 -0.26563,2.14258 0.75732,1.67883 0.57735,3.80123 -0.71484,5.16406 0.50855,1.84556 1.37794,3.89607 0.43555,5.75196 -0.20204,0.46673 -0.54741,0.87468 -0.85742,1.25195 0.0481,1.98532 0.16763,4.00078 0.73632,5.91601 1.36516,1.10738 2.07997,3.08135 1.50606,4.76913 -0.28597,0.74212 -0.96748,1.21207 -1.33418,1.90665 -0.64823,0.10806 -0.1223,0.89811 -0.31091,1.36121 0.13667,0.62842 0.52851,1.25133 0.50908,1.93974 0.13986,1.46359 -0.60235,2.93833 -1.80364,3.7596 -0.15862,3.74606 0.39595,7.56353 -0.53516,11.2461 0.67306,1.21236 0.77457,2.74137 0.20508,4.01367 0.38778,1.46772 0.38832,3.07018 -0.18554,4.49023 1.0031,1.42333 1.73584,3.23637 1.1875,4.97852 0.59985,0.20927 0.9938,0.59826 1.09447,1.2386 0.62927,0.96818 0.89817,2.21301 0.37037,3.28679 -0.26906,0.83738 -0.83577,1.55458 -1.52344,2.0918 1.52365,1.34967 1.69257,3.75545 0.64453,5.44335 0.53887,0.75476 0.68709,1.69865 0.80042,2.57976 1.31023,2.34438 0.74322,5.14582 1.58044,7.61751 0.87259,1.26023 1.99417,2.67112 1.6279,4.3131 -0.19538,0.75601 -0.42448,1.50186 -0.51657,2.2826 -0.58475,0.18619 -1.2913,0.38762 -0.5847,0.98098 1.38101,1.33995 2.3383,3.29982 1.91087,5.2534 -0.0291,0.52107 -0.55537,0.98919 -0.15039,1.46875 0.37856,0.97161 0.38913,2.07307 0.0488,3.05664 0.46996,0.67964 0.54038,1.56368 0.96266,2.23709 0.77355,0.94153 1.19238,2.13381 1.34007,3.33322 0.97448,-0.0168 1.99487,-0.17154 2.92205,0.2586 1.27985,0.48397 2.35228,1.56853 2.701,2.90546 1.25371,-0.0924 2.55235,0.21816 3.5918,0.94141 0.76335,-0.14523 1.53797,0.0849 2.2483,0.26679 1.13225,-0.35699 2.50455,-0.46212 3.42302,0.43694 0.7919,0.5251 1.72536,1.112 1.86969,2.15369 0.17158,0.42644 -0.10002,0.99998 0.0825,1.35241 0.44397,0.0417 0.91148,-0.55172 1.4312,-0.61999 2.04937,-0.79407 4.49559,0.31119 5.37992,2.29341 0.31171,0.34591 0.17424,1.11633 0.65133,1.21441 0.63612,0.15196 1.31003,-0.20404 1.97656,-0.0449 1.46244,0.17185 2.72522,1.20883 3.29492,2.54883 1.93519,0.31461 3.89997,1.18694 5.80857,0.52522 1.17903,-0.33051 2.4504,-0.22054 3.54082,0.33263 0.49974,0.18651 0.9289,0.55244 1.22092,0.99372 0.96848,0.07 1.89017,0.45687 2.73438,0.87695 1.77405,-0.0225 3.54657,0.7775 4.68359,2.14258 0.93381,0.1058 1.61217,0.14994 2.56437,0.21755 2.19519,0.20026 4.50736,0.22848 6.52938,1.20042 0.41249,0.43904 0.90498,0.22839 1.36294,-0.0309 1.38844,-0.84869 3.25248,-0.945 4.63901,-0.0452 0.76331,0.0769 1.49418,0.39333 2.10743,0.84766 1.36472,-0.35024 2.81801,-0.15648 4.16015,0.0371 0.97371,-0.68746 2.24103,-0.86478 3.38477,-0.625 1.4478,-0.39967 2.99623,0.12945 4.10825,1.05931 0.68143,0.12825 1.45518,0.4003 2.12001,0.22782 1.98937,-1.26233 4.47074,-1.07632 6.72611,-1.02428 1.25939,0.0508 2.50495,0.352 3.657,0.83732 1.83269,0.13634 3.71706,0.11959 5.5273,0.0483 1.094,-1.6451 3.17343,-2.88233 5.17383,-2.30274 0.51304,-0.44818 1.06269,-0.10635 1.60547,0.084 0.81742,0.30692 1.53489,0.83297 2.15234,1.44336 0.62122,-0.38278 1.36146,-0.52219 2.06445,-0.59766 1.64168,-1.1385 3.86748,-1.30001 5.69532,-0.5293 1.16443,-0.11398 2.32775,0.15257 3.41015,0.56446 2.26209,-1.17429 4.89376,-1.28156 7.39135,-1.30325 0.61986,-0.0691 1.30793,0.31571 1.82014,-0.16921 1.07705,-0.62062 2.38202,-0.72602 3.56992,-0.54824 2.9961,-1.1424 6.21192,-0.31481 9.29476,-0.14923 0.95708,0.10633 1.86809,0.57337 2.62305,1.08008 1.169,-0.0562 2.36942,0.0283 3.45703,0.50195 1.61732,-0.91357 3.61445,-1.39813 5.40625,-0.71484 2.72906,-0.56216 5.95466,-0.50511 8.09375,1.53125 0.33552,0.42511 1.04246,0.10503 1.533,0.2416 0.88242,0.0451 1.76524,0.12996 2.63302,0.29942 1.37367,-2.35431 4.5467,-2.91689 6.98437,-2.10352 0.44373,0.0308 0.83083,0.61567 1.2168,0.18359 0.89742,-0.48902 1.95827,-0.61222 2.96094,-0.46679 1.24057,-1.0461 3.00814,-1.63109 4.57812,-1.05078 0.54349,0.27254 0.83867,-0.51072 1.33203,-0.64063 2.1461,-1.20445 4.70636,-0.0264 6.92774,-0.8789 1.22837,-0.65977 2.76076,-0.68494 4.03515,-0.13672 1.21273,-1.54779 3.5355,-2.04116 5.25586,-1.08399 1.42802,-0.4734 3.10525,-0.41879 4.36914,0.45899 1.25763,-0.19273 2.57519,-0.23478 3.82032,0.0723 2.23616,-1.10821 4.96661,-1.78158 7.37304,-0.83008 0.38592,0.0534 0.71186,0.67842 1.07345,0.43698 0.91323,-0.50422 2.01393,-0.55328 3.01249,-0.38229 1.40562,-0.69995 3.17655,-0.61599 4.40466,0.41158 0.52804,0.24326 0.74977,1.12401 1.39527,0.90276 1.52252,-0.30014 3.10815,-0.40258 4.62781,-0.0311 1.78088,-0.87226 3.8571,-0.54506 5.73088,-0.21008 0.60194,-0.0854 1.22204,-0.4317 1.87458,-0.43836 0.5904,0.10806 0.89279,-0.29259 1.26462,-0.66718 0.44367,-0.28425 0.80703,-0.56829 0.60665,-1.14978 -0.23553,-0.7547 0.62763,-1.12372 0.98616,-1.67132 0.82098,-0.90633 1.98052,-1.41637 3.18945,-1.50782 0.3245,-1.04202 0.68711,-2.07739 0.76172,-3.17187 0.3009,-1.37782 1.33346,-2.53464 2.61719,-3.08985 0.28308,-2.27732 1.51672,-4.39918 1.26562,-6.74218 0.0275,-1.09895 0.29587,-2.22355 0.95313,-3.1211 -0.27958,-1.33703 -0.33016,-2.73162 -0.10743,-4.07422 -0.3444,-1.04392 -0.24949,-2.1829 -0.0879,-3.23242 -0.96743,-1.45804 -0.97643,-3.44948 -0.12304,-4.96289 -0.80755,-1.97719 -0.69742,-4.44727 0.76562,-6.09179 0.288,-4.07947 -0.3464,-8.20604 0.38672,-12.25782 -1.04207,-1.61676 -0.63411,-3.88539 0.68359,-5.20508 0.14916,-0.5917 -0.59826,-0.83735 -0.77343,-1.35937 -0.46346,-0.79581 -0.6337,-1.73362 -0.58399,-2.64453 -1.06391,-1.47713 -0.96053,-3.65934 0.23047,-5.03516 -0.45188,-3.26604 -0.13507,-6.61874 -0.10425,-9.8253 0.038,-1.59765 0.0697,-3.20655 -0.0305,-4.79774 -0.81498,-0.89608 -1.1751,-2.14646 -1.09765,-3.34375 -1.5329,-1.8818 -1.50179,-4.98156 0.36914,-6.62891 -1.76655,-1.56872 -1.90881,-4.45164 -0.55664,-6.32617 -0.43451,-1.78586 -0.21069,-3.64209 -0.41992,-5.44727 -0.31511,-0.84544 -0.90971,-1.59124 -0.99024,-2.52734 -0.10273,-0.51956 0.0936,-1.10278 -0.43351,-1.43228 -0.46266,-0.5754 -0.85096,-1.28156 -1.00912,-1.98401 0.25604,-1.07345 0.0805,-2.34762 0.97193,-3.17356 0.10893,-0.90517 0.66409,-1.70917 1.25977,-2.36132 -1.5673,-1.90309 -1.25205,-4.53384 -1.11124,-6.82218 0.0891,-1.22664 0.28371,-2.48343 0.25967,-3.6954 -1.17481,-1.18082 -1.53719,-3.07059 -0.89648,-4.60547 -0.55563,-1.02854 -0.62123,-2.29752 -0.20703,-3.38672 -0.56928,-1.27629 -0.59391,-2.92686 0.38672,-4.01953 -0.41397,-2.43534 0.34479,-4.95136 -0.33204,-7.34961 -0.85023,-1.05028 -1.58909,-2.3827 -1.47167,-3.75606 0.14222,-0.47685 0.47114,-0.95059 0.08,-1.39023 -0.79879,-1.65264 -0.49745,-3.75966 0.83114,-5.04707 -0.70416,-0.76421 -0.75219,-1.8148 -0.97071,-2.76953 -0.34025,-0.96917 -0.6484,-1.98275 -0.73437,-2.99414 -1.53214,-1.72688 -1.10031,-4.49427 0.41014,-6.09627 0.40542,-0.38815 -0.0443,-1.03205 0.0606,-1.5467 -0.0756,-0.57985 0.22454,-1.20825 0.13867,-1.72812 -1.25044,-1.51688 -2.4819,-3.39142 -2.15234,-5.45118 0.11156,-0.51593 0.38706,-0.98756 0.60938,-1.44336 -0.11328,-0.53398 -0.14998,-1.13983 -0.33789,-1.62695 -1.82945,-0.75005 -2.86207,-2.76411 -2.77226,-4.68921 -0.0857,-0.80325 0.13854,-1.63742 0.18824,-2.39609 -0.73698,-1.34656 -1.00504,-2.91855 -1.05075,-4.41665 -1.80105,-1.44709 -3.06386,-3.93946 -2.24646,-6.23829 0.30194,-0.49125 -0.33919,-0.93607 -0.39026,-1.44531 -0.51571,-1.47344 -0.51684,-3.05046 -0.64844,-4.58789 -0.68955,-0.21171 0.20119,-1.96492 -0.47307,-2.2192 -0.31012,-1.27008 -0.82162,-1.5751 -0.40675,-2.94738 0.24628,-1.30875 -0.79865,-1.70196 0.085,-2.59888 0.62609,-1.99341 0.47663,-4.14779 0.19134,-6.18961 -0.0404,-1.01936 0.48868,-1.84099 0.0523,-2.6625 -0.78131,-1.16237 -0.81228,-2.72097 -0.35009,-4.00157 0.24853,-0.61042 -0.72076,-2.17308 -0.15036,-2.4946 -0.16404,-2.18364 -0.56449,-3.04231 0.24443,-5.13214 0.53072,-0.81077 0.26168,-1.83174 0.38463,-2.74978 0.0531,-1.38966 0.20043,-2.79569 0.59642,-4.12738 -0.46677,-1.43396 -0.41918,-2.96779 -0.28711,-4.45118 -2.04496,-2.00413 -2.04423,-5.83203 0.19336,-7.68945 0.70062,-0.53672 1.56707,-0.85394 2.44922,-0.88476 0.70991,-1.76399 1.69087,-3.44051 2.99023,-4.82813 0.37709,-2.09586 2.43968,-3.52789 4.50977,-3.49805 0.70196,-0.0135 1.40051,0.0701 2.0957,0.15821 1.46909,-1.06087 3.36481,-1.34211 5.13704,-1.46661 3.57751,-0.10655 7.22574,0.14104 10.65398,1.23028 0.44285,0.18719 0.86874,0.37297 1.32576,0.12707 2.25023,-0.62943 5.0426,0.1382 6.16057,2.30652 1.3326,0.40201 2.49277,1.42722 2.93554,2.75586 1.5413,0.24513 2.88888,1.38251 3.43164,2.83985 0.65447,0.41321 1.36102,1.00094 2.14258,1.01562 1.3346,-0.24451 2.74404,0.25249 3.71094,1.17774 0.54548,0.11346 1.07135,0.32913 1.54883,0.60156 2.02688,-1.3709 4.81637,-0.53868 6.37305,1.16601 0.46631,0.35416 0.70847,1.0127 1.10378,1.34474 4.51476,0.17284 8.85996,1.51624 13.22434,2.54589 1.71127,-1.31317 4.37138,-0.91 5.65828,0.8119 0.50903,0.50407 0.72375,1.26067 1.10987,1.80308 1.33457,0.58698 2.31977,1.744 3.26505,2.77564 2.28828,-0.20513 5.73439,-0.76238 6.14958,1.53874 1.07785,0.94476 2.41848,1.79211 2.83594,3.2539 0.45402,0.31062 0.76187,0.77001 1.0664,1.2168 1.94154,-0.85116 4.35435,0.16042 5.28907,2.01758 0.60782,0.0861 1.12907,0.51053 1.76172,0.30664 0.63974,-0.0427 1.26732,0.19486 1.87232,0.27425 0.86869,-0.29638 1.77654,-0.0364 2.63549,0.0656 0.65075,-0.0605 1.28235,0.27677 1.87307,0.37348 1.33,-0.48721 2.88574,-0.33737 4.08005,0.43316 1.56409,-1.05827 3.57103,-1.16543 5.36328,-0.86328 1.52095,-0.61998 3.33329,-0.1842 4.47266,0.97852 2.17805,-1.57083 3.94835,-0.77222 5.86352,1.23523 1.38947,-0.11139 2.86276,-0.0595 4.16753,-0.58366 1.25296,-0.73254 0.36464,-2.87603 1.69319,-2.37565 1.08497,-0.97551 2.50969,-1.59923 3.9668,-1.62695 0.40102,-0.25455 1.46103,1.00765 1.85409,0.79439 0.48475,-1.27356 1.47899,-2.33548 2.69995,-2.89738 0.71665,-0.99994 1.89498,-1.61719 3.11841,-1.67489 -0.006,-1.56559 1.04776,-3.04251 2.47265,-3.65625 0.75592,-1.52792 1.45051,-2.60967 3.16683,-2.2832 0.63421,-0.45575 -1.6802,-0.97498 -1.59411,-1.8023 0.59703,-1.89624 1.342,-3.69915 3.33968,-3.50281 1.15844,-0.927 2.23632,-1.96347 3.51563,-2.73047 0.269,-1.88289 -0.80976,-6.40315 1.02058,-6.7004 0.42612,-0.90139 0.79182,-1.82988 1.15039,-2.75977 -1.15608,-2.36112 -0.0658,-4.95802 0.19511,-7.39018 0.19156,-0.86785 -0.54933,-1.52452 -0.69818,-2.34364 -0.10352,-0.50335 1.28457,1.74043 1.01693,1.31437 -0.6147,-0.58765 -0.23731,-0.72606 -0.51296,-1.49147 -0.28381,-0.50705 1.30388,1.57651 0.8498,1.23875 -0.7472,-0.85284 -1.28696,-1.9589 -1.33008,-3.10547 -0.11282,-0.42994 0.36655,-0.97925 0.043,-1.30664 -0.7189,-0.77401 -1.35008,-1.6622 -1.66602,-2.67969 -0.86723,-0.59711 -1.45108,-1.52413 -1.80469,-2.48828 -0.47221,-0.41059 -0.55546,-1.18801 -1.26367,-1.27539 -1.85474,-0.81437 0.0318,-1.99713 -0.58418,-3.97824 -1.95403,-2.53596 -2.63252,-4.45032 -3.81161,-7.53018 -0.15604,-1.09436 -1.19804,-1.76325 -1.89704,-2.5245 -0.42476,-0.56286 -1.17419,-0.22986 -1.76172,-0.45899 -0.58865,-0.14856 -1.368,0.0113 -1.62006,-0.68672 -0.62032,-0.85346 -1.24041,-1.7071 -1.86236,-2.55937 0.38879,-0.65791 0.0169,-0.99662 -0.58594,-1.2793 -0.9909,-0.67005 -1.69109,-1.65894 -2.28126,-2.66876 -0.50576,-0.44239 -0.79372,-1.11295 -0.92577,-1.72382 -1.78366,-0.41381 -3.01399,-2.17199 -3.11719,-3.93554 -1.77745,-0.67395 -3.32603,-1.94897 -4.33008,-3.54102 -0.97564,-0.45913 -1.76371,-1.249 -2.33398,-2.1543 -1.44714,-0.001 -2.82836,-0.81126 -3.64649,-1.97656 -1.06076,-0.50104 -1.86588,-1.37718 -2.66601,-2.20898 -1.87407,0.37411 -4.08937,-0.60917 -4.61328,-2.55274 -0.32837,-0.46327 -0.19955,-1.12801 -0.36596,-1.56002 -0.70881,-0.31509 -1.12202,-1.03935 -1.68287,-1.49271 -0.48505,-0.25878 -0.91765,-0.55176 -1.49219,-0.49024 -1.4018,-0.198256 -2.69276,-1.113986 -3.28125,-2.410146 -0.75855,-0.29862 -1.29674,-0.96627 -1.8448,-1.50448 -1.83208,-0.58435 -3.28297,-2.19759 -3.69817,-4.07169 -0.51895,-0.53359 -1.16604,-0.99981 -1.93945,-0.9375 -1.20962,-0.15577 -2.29001,-0.86907 -3.07617,-1.77149 -0.86003,-0.043 -1.68756,-0.31034 -2.53125,-0.46289 -0.41552,-0.71232 -0.82815,-1.48271 -1.32908,-2.11005 -0.8368,-0.47222 -1.4801,-1.25328 -1.83889,-2.13995 -0.8607,-0.31381 -1.67116,-0.83492 -2.375,-1.38476 -1.06357,-0.009 -2.10947,-0.36095 -2.98828,-0.93555 -1.21877,0.002 -2.33425,-0.72686 -3.10157,-1.58008 -1.50947,0.13047 -3.10812,-0.0466 -4.41406,-0.86719 -1.68171,0.24608 -3.56111,0.008 -4.82617,-1.22461 -2.09799,0.0814 -4.31968,-0.21458 -6.14062,-1.3125 -0.96089,-0.68442 -1.66289,-1.75009 -1.83594,-2.92578 -1.47631,-1.04397 -2.7607,-2.33659 -4.27149,-3.33398 -2.5643,-0.015 -4.80493,-2.21529 -5.09179,-4.70899 -1.04642,-0.66452 -1.763,-1.76678 -2.09766,-2.94726 -0.70864,-0.25305 -1.2875,-0.8143 -1.92383,-1.14063 -1.45731,0.019 -2.83975,-0.82247 -3.625,-2.00781 -0.52451,-0.0741 -1.01029,-0.4039 -1.51953,-0.11328 -1.26321,0.28214 -2.72358,0.008 -3.65039,-0.93945 -1.02567,-0.11685 -1.88132,-0.78733 -2.57617,-1.48047 -0.94352,-0.31779 -1.74717,-0.983 -2.39453,-1.69532 -1.42478,0.51485 -3.11538,0.15639 -4.19532,-0.90234 -2.52353,-0.1 -5.26195,-1.16359 -6.52148,-3.47656 -0.37755,-0.30622 -0.93252,-0.49847 -1.33984,-0.81836 -2.42822,-0.15417 -4.15373,-2.09876 -5.86992,-3.59711 -0.50679,-0.32616 -0.82959,-1.15805 -1.52438,-0.87692 -2.22543,0.253 -4.65349,-0.91268 -5.53149,-3.03769 -1.6834,-0.21133 -3.17317,-1.25632 -4.17187,-2.59766 -1.93605,0.36539 -3.70497,-0.80838 -5.00977,-2.11914 -0.31178,-0.37934 -0.74761,-0.47681 -1.2034,-0.34878 -1.19244,0.09 -2.43648,-0.21777 -3.38644,-0.95395 -1.49437,0.31939 -2.99475,0.65452 -4.52539,0.75 -0.88427,1.72743 -3.11924,2.56238 -4.92773,1.88281 -0.69271,0.67486 -1.61273,1.11181 -2.54102,1.29883 -0.78791,1.20727 -2.18406,1.8943 -3.58398,2.08789 -0.82755,1.30803 -1.33511,2.85212 -2.54493,3.89258 -0.0553,1.49282 -0.97748,2.99732 -2.35691,3.59704 -0.78676,0.11377 -1.18771,0.92939 -1.9542,1.14637 -0.52627,0.32684 -1.26996,0.11666 -1.59777,0.71941 -1.6434,1.94551 -3.88397,3.23639 -6.17981,4.26189 -2.24216,1.14731 -4.3012,2.71135 -6.71569,3.48724 -0.90326,0.25033 -1.91553,0.17883 -2.77179,-0.0752 -1.29619,1.54899 -3.47777,2.4071 -5.46289,1.87304 -1.88126,0.97741 -3.99872,1.416 -6.10547,1.47852 -0.73444,0.94597 -1.89973,1.56792 -3.09961,1.63476 -0.73538,1.00498 -1.55134,2.05921 -2.6567,2.65024 -0.85559,0.34366 -1.75039,0.87245 -2.70901,0.56295 -0.48719,-0.25915 -0.90343,0.36301 -1.41358,0.37666 -0.59804,0.20779 -1.26943,0.11999 -1.86133,0.16601 -1.40876,0.98214 -2.97043,1.77428 -4.66797,2.09766 -1.20779,1.80124 -3.6539,2.63537 -5.71289,1.95703 -0.9048,0.41998 -1.92721,0.57262 -2.89063,0.64453 -2.30434,1.42702 -5.13543,0.84886 -7.63024,0.36672 -0.62536,-0.21829 -1.01036,0.50413 -1.57679,0.65672 -1.53502,0.76217 -3.45439,0.76931 -4.92383,-0.11914 -2.05245,0.45667 -4.58349,0.31699 -5.99023,-1.45898 -1.76479,0.24753 -3.64074,-0.56598 -4.61133,-2.0625 -1.01086,-0.28524 -1.897,-0.86848 -2.85742,-1.27344 -1.76443,0.73952 -3.99161,0.1894 -5.06055,-1.4375 -0.35185,-0.43608 -0.48832,-1.01746 -0.69922,-1.5 -1.98414,-1.33639 -4.26604,-2.12786 -6.58046,-2.66234 -1.12741,-0.34634 -2.10589,-1.0481 -3.06016,-1.69704 -1.89986,-0.53006 -3.11166,-2.18837 -4.71181,-3.20816 -1.33776,-0.36283 -2.65836,-0.89185 -3.76471,-1.758 -2.21689,-1.69144 -4.32104,-3.63929 -5.79692,-6.01821 -2.48795,-0.85167 -4.72056,-2.56129 -6.10156,-4.80469 -0.21841,-0.88531 -1.10519,-1.32417 -1.46094,-2.14844 -0.31259,-0.50834 -0.32973,-1.17697 -0.91601,-1.46484 -0.35741,-0.47592 -0.80513,-0.78135 -1.35197,-1.00554 -1.42353,-0.805 -2.47173,-2.10282 -3.42342,-3.40266 -2.97292,-0.15997 -5.53479,-2.32839 -6.72657,-4.97266 -1.28783,-0.60638 -2.25784,-1.79956 -2.66406,-3.15625 -0.55025,-0.2751 -0.98438,-0.71455 -1.625,-0.76367 -1.35278,-0.45599 -2.47751,-1.60348 -2.78906,-3.00977 -1.3433,-0.076 -2.69628,-0.72726 -3.33399,-1.95898 -0.42306,-0.619846 -0.59433,-1.371695 -0.6289,-2.109379 -1.92447,0.04169 -3.89019,-1.165099 -4.47266,-3.044922 -1.05718,-0.471821 -1.85027,-1.369757 -2.42781,-2.340088 -0.38892,-0.308287 -0.76714,-0.710181 -1.2824,-0.465313 -1.17239,0.2474 -2.34003,-0.361133 -3.24487,-0.977802 -1.48011,0.581466 -3.29461,0.274873 -4.37304,-0.9375 -1.12352,-0.239012 -2.14325,-0.922433 -2.65235,-1.970703 -0.6113,-0.05936 -0.99736,-0.651898 -1.52505,-0.810232 -0.79326,0.140354 -1.57381,-0.165233 -2.31089,-0.346018 -0.50898,0.07761 -1.04063,-0.0519 -1.52734,-0.0625 z m -15.23242,11.810547 c 0.47073,0.162948 1.59148,-0.355883 1.44922,0.407812 0.23676,0.464726 0.92612,0.582176 1.38985,0.814276 0.45396,0.15669 0.79224,0.72181 1.29997,0.38062 3.02451,-0.64912 6.14795,-0.57682 9.22608,-0.56468 2.31272,0.0856 4.65928,0.10196 6.92785,0.58893 1.01201,0.3219 1.97274,0.9691 2.57466,1.82135 0.21127,0.397 0.87952,0.45102 1.30815,0.62591 1.46893,-0.50963 3.21763,-0.12837 4.34375,0.92578 0.49027,0.46814 0.71906,1.20062 0.94141,1.69922 0.70659,-0.0558 1.1761,0.64466 1.75417,0.96968 0.83389,0.61416 1.30762,1.59983 1.44114,2.60845 0.73735,0.7636 1.05294,1.84795 1.04492,2.89257 0.69652,0.69848 1.34264,1.73445 2.43359,1.76368 1.56314,0.36652 3.08754,1.50203 3.32422,3.17773 0.20281,0.65012 0.0414,1.39078 0.0625,2.00391 1.59392,0.27166 3.01586,1.34766 3.73828,2.80664 1.16689,0.21209 2.22526,0.92416 2.86524,1.92187 1.87984,0.27635 3.54319,1.89667 3.57812,3.84571 1.98893,2.55272 4.53395,4.61708 6.4629,7.2207 1.68232,0.23326 3.07416,1.60374 3.49804,3.21094 1.3299,0.59902 2.26588,1.84739 2.73047,3.20312 1.10361,0.32453 2.04903,1.12174 2.59375,2.12109 0.6755,0.33765 1.13605,1.0239 1.63985,1.49763 1.69766,0.264 3.3042,1.39958 3.89726,3.04534 0.57345,0.3586 1.19944,0.63623 1.76758,0.99805 1.23555,-0.42231 2.75299,-0.43879 3.78124,0.46054 0.6644,0.37865 1.16152,1.02664 1.50001,1.66055 1.02283,0.31891 1.89256,1.04952 2.43554,1.9668 1.16345,0.39889 2.00673,1.4254 2.58594,2.41602 1.48796,0.33234 2.67888,1.3628 3.79102,2.33398 1.19454,-0.0901 2.38384,0.46731 3.19531,1.32813 1.15342,-0.82079 2.5998,-0.27654 3.81641,0.0801 1.57627,0.58889 2.87813,1.84166 4.61488,1.98872 1.42924,0.19071 2.90817,-0.0228 4.3148,0.23394 1.66282,-0.96162 3.78091,-0.33049 5.13086,0.89258 1.81666,-0.67311 3.86933,-0.65988 5.72071,-0.14063 1.25855,-0.46003 2.65575,-0.0229 3.63867,0.82813 0.79312,-0.61213 1.82391,-1.11935 2.81874,-1.05644 1.0292,0.35975 2.13868,0.55283 2.99974,1.27844 0.33536,0.4711 1.09303,0.12879 1.63882,0.20048 3.4747,-0.13092 6.98095,-0.41532 10.43528,0.13221 1.34917,-0.6504 2.90152,-0.53056 4.33008,-0.25586 1.15163,-0.90389 2.6984,-1.11094 4.11718,-0.93946 0.95648,-0.90938 2.2869,-1.39664 3.60547,-1.3789 1.2309,-1.74716 3.76117,-2.47445 5.68359,-1.46875 1.24961,-1.5932 2.64837,-3.19635 4.48829,-4.10547 0.68278,-0.22499 1.15141,-0.87967 1.88476,-1.04883 0.72307,-0.23037 1.21453,-0.91766 1.97852,-1.11328 0.53101,-0.2445 1.22921,-0.0594 1.5625,-0.63867 1.77426,-1.67229 4.23928,-2.41361 6.5332,-2.88282 0.75877,-1.11179 2.0069,-1.81415 3.31055,-2.07421 0.50181,-1.44135 1.73528,-2.76819 3.35351,-2.7793 0.52226,-0.076 1.26552,0.0205 1.39453,-0.64453 0.95998,-0.67023 1.99725,-1.37414 3.20508,-1.37696 1.20201,-0.82656 2.72506,-0.87123 4.13086,-0.74023 1.32817,-1.7682 3.71044,-2.54059 5.84961,-2.18359 4.05482,-2.832 8.50262,-5.06269 13.05366,-6.97628 0.66152,-0.32275 1.44416,-0.41455 2.07525,-0.74443 0.73827,-0.73031 1.76803,-1.06139 2.75771,-1.22708 1.88637,-1.13005 4.17143,-0.62748 6.16379,-0.10501 0.61235,0.17843 1.23845,0.13433 1.79725,-0.16009 2.48252,-0.71248 5.06147,0.53698 6.80469,2.27343 1.70715,-0.15939 3.44513,0.75639 4.26953,2.25977 1.78198,0.50425 3.17704,2.13054 3.33609,3.97598 0.12394,0.63228 0.8582,0.84245 1.19516,1.36777 0.78472,0.23198 1.34171,0.93762 2.18701,0.95729 1.54684,0.43316 3.01846,1.16822 4.35041,2.05786 0.56236,0.43906 1.02673,1.006 1.34734,1.6411 1.69372,-0.28578 3.46875,0.49047 4.51953,1.82617 1.6321,-0.24678 3.44505,-0.27148 4.81641,0.78906 0.94585,0.64126 1.362,1.77299 1.56836,2.84571 2.64966,0.23769 4.84042,2.12993 6.35024,4.20502 0.67472,-10e-4 1.49925,-0.25149 2.24156,-0.11127 1.46661,0.16714 2.86541,1.08577 3.33615,2.52698 0.45281,0.61341 1.28518,0.25323 1.90994,0.56677 1.96118,0.76435 3.40495,2.56891 4.01172,4.54296 0.59233,0.007 1.24194,-0.29683 1.88086,-0.22851 1.85008,-0.0174 3.58731,1.33066 4,3.13867 1.62074,-0.0518 3.26468,0.62832 4.26953,1.91211 0.78857,0.36991 1.47097,0.9829 1.87109,1.76172 1.48072,0.44375 2.71827,1.6293 3.22852,3.08789 1.06391,0.60315 1.9656,1.44531 2.81836,2.3125 2.30399,0.1055 3.90922,1.935866 5.62068,3.236056 1.81197,1.3495 4.02639,2.06207 5.81877,3.41238 1.14179,0.13244 2.20795,0.74202 2.94336,1.61914 2.2032,0.25472 3.68922,2.21027 4.46875,4.13086 0.19322,0.44808 0.28002,1.07601 0.91602,0.89453 2.34309,0.0794 4.79096,1.54195 5.37695,3.92187 1.22772,0.74672 2.50577,1.55952 3.21484,2.85547 1.4847,0.42472 2.80285,1.31483 3.89708,2.36518 2.1766,0.86633 3.70475,2.74778 5.29398,4.38613 0.8948,0.98333 1.72014,2.04705 2.77769,2.86588 2.02694,-0.2361 4.11782,1.0906 4.67383,3.0625 0.38851,0.31942 0.48405,0.9059 1.0439,0.95932 0.91253,0.31265 1.69767,0.94105 2.40532,1.54263 1.00291,0.0692 2.06203,0.38996 2.72852,1.18555 1.67438,0.24541 3.02011,1.71727 3.35351,3.33594 0.13576,0.67281 -0.38666,1.40772 0.14987,1.96735 1.07645,1.59521 1.88035,3.34413 2.4759,5.17093 1.29868,3.72458 2.32243,7.57866 2.68868,11.51406 0.0743,1.49425 -0.29413,3.11219 -1.41796,4.16797 -0.31142,2.69099 -0.73805,5.55636 -2.38477,7.79297 -0.58152,0.74975 -1.46758,1.17521 -2.30521,1.51766 -0.36548,0.48789 -0.94352,0.80838 -1.33519,1.22646 -0.50757,1.56448 -1.76745,2.87007 -3.32249,3.41213 -0.27786,0.47216 -0.12854,1.2232 -0.5694,1.53098 -1.49812,0.80539 -3.30856,1.47896 -4.97162,0.73855 -1.75199,-0.37642 -3.32486,0.90545 -5.0728,0.85794 -1.10366,0.0561 -2.25243,-0.19865 -3.15376,-0.85794 -2.34713,0.2135 -4.61245,1.10233 -6.97863,1.08047 -1.08982,-0.0168 -2.1301,-0.46567 -3.06664,-0.93291 -1.17997,0.041 -2.26908,-0.48713 -3.30434,-0.98936 -1.82554,0.53866 -3.92928,-0.36039 -4.83008,-2.01953 -0.86282,-0.25529 -1.60896,-0.80974 -2.28009,-1.36217 -1.12364,-0.30732 -2.12414,-0.9664 -2.95428,-1.77259 -1.46647,-0.087 -2.80925,-0.85217 -3.85742,-1.84571 -0.86689,0.14679 -1.77185,-0.12713 -2.5868,-0.25085 -1.28951,0.6163 -2.75295,-0.005 -3.85656,-0.73157 -0.44586,-0.28067 -0.68978,-0.92907 -1.30274,-0.7793 -1.34797,-0.12869 -2.63381,-0.72669 -3.63476,-1.63281 -1.36494,0.26586 -2.8307,0.0468 -4.01368,-0.67773 -0.95913,0.15259 -1.95873,0.004 -2.83203,-0.41992 -1.42216,0.78847 -3.39611,0.82532 -4.59765,-0.39454 -0.85869,-0.52468 -1.20689,-1.5517 -1.50586,-2.42187 -0.72142,-0.43326 -1.38813,0.24351 -2.13086,0.24023 -1.90451,0.28862 -3.87879,-0.85503 -4.5625,-2.65625 -2.1013,-0.36377 -4.38826,-0.42475 -6.36524,-1.48242 -0.47573,-0.45077 -0.90322,-0.20707 -1.38273,0.0848 -1.50725,0.68771 -3.49711,0.39287 -4.59187,-0.88359 -1.29863,0.24077 -2.68303,-0.18365 -3.6504,-1.07617 -1.17732,0.37262 -2.54379,0.33933 -3.64843,-0.22265 -0.53183,-0.22576 -0.70018,-0.93923 -1.34375,-0.875 -0.84307,-0.15687 -1.50355,-0.7255 -2.32618,-0.9336 -0.65991,-0.26595 -1.20261,-0.7865 -1.7871,-1.13672 -0.87144,0.14808 -1.76498,-0.0731 -2.57813,-0.31054 -1.59456,0.47067 -3.32626,-0.17413 -4.46094,-1.33008 -1.59345,0.44076 -3.33757,-0.0306 -4.65234,-0.98828 -1.5558,0.232 -3.25916,0.0519 -4.59375,-0.82032 -0.64573,0.0521 -1.31581,-0.23664 -1.93952,-0.43012 -0.45636,-0.37421 -0.81476,-0.28634 -1.29431,0.025 -1.25832,0.53428 -2.70681,0.46771 -3.96383,10e-4 -0.62746,0.0211 -1.26193,-0.1099 -1.83359,-0.36582 -1.39461,0.90103 -3.29633,0.89144 -4.65625,-0.0762 -1.728,1.01965 -1.65307,2.24128 -2.88032,0.59919 -0.83083,-0.0283 -1.36219,0.74552 -2.16407,0.89258 -0.57058,0.68877 -1.42696,1.06765 -2.20508,1.45703 -0.50041,0.10659 -0.4273,0.86235 -0.87722,1.12335 -0.91277,0.84479 0.0472,1.31566 -1.14,1.32235 -0.4616,-0.0436 -0.92546,-0.11888 -1.35742,-0.29297 -0.0641,1.07503 -0.63226,2.04974 -1.22922,2.8846 -0.12308,1.15639 -0.7558,2.24841 -1.69461,2.93376 -0.29103,2.95322 -1.45778,4.49044 -2.39764,7.38127 0.80754,1.11181 1.08928,2.60408 0.67578,3.91993 0.53972,1.02091 0.44787,2.2629 0.11329,3.32812 0.58065,0.48127 1.2107,1.09933 1.36998,1.8347 0.0416,1.48435 0.25452,3.33514 -0.94968,4.36471 -0.43416,0.36685 -0.82607,0.74693 -0.84432,1.35665 -0.43826,1.8343 -0.63531,3.73605 -0.51896,5.61796 1.32088,1.36693 1.46181,3.59358 0.55859,5.22266 0.97572,1.50485 -0.66047,3.30234 -1.35133,4.93731 0.2398,0.66981 0.23446,1.3924 0.77734,1.9121 0.34512,0.52577 0.44716,1.18241 0.66039,1.73489 1.38245,1.29617 1.68458,3.45361 0.8982,5.14597 0.61133,0.64435 0.88254,1.50914 1.24291,2.28216 0.48114,0.63608 0.81651,1.41817 0.99899,2.17399 -0.27667,0.5837 0.15406,0.99738 0.3831,1.50089 0.56336,1.26505 0.57599,2.80068 -0.11718,4.01953 0.16304,0.57062 0.3592,1.14185 0.43359,1.73632 2.10014,0.37362 1.45367,2.19946 0.94692,4.3297 -0.075,0.44052 -0.33553,0.91091 0.15921,1.18664 1.04707,1.12562 1.93053,2.62498 1.65483,4.21576 -0.17577,0.464 0.0767,0.782 0.34416,1.14643 1.11105,1.88874 0.74271,4.27856 -0.23047,6.14062 1.03618,2.69385 0.36002,5.64875 -0.5371,8.2754 0.63368,1.13073 0.77935,2.44901 0.82421,3.72265 1.85172,1.67735 1.94632,4.46501 1.50008,6.75713 -0.0619,0.47719 -0.40827,0.94795 -0.0509,1.37959 0.56136,1.31648 0.31034,2.91183 -0.44531,4.0625 1.69748,1.7355 1.75979,4.34224 1.7671,6.62161 -0.003,0.91541 -0.31159,1.82524 -0.70069,2.61472 0.11923,0.96408 1.03304,1.5989 1.18945,2.57031 0.31948,1.05369 0.28606,2.18583 0.0781,3.25195 1.39731,2.26482 1.41384,5.0333 1.49805,7.60938 0.002,1.05759 -0.0573,2.11325 -0.0918,3.16992 1.89136,0.98027 2.66783,3.51435 1.71289,5.4082 -0.42877,1.24866 -1.78308,1.9477 -1.96485,3.30274 -0.14178,0.5239 -0.15296,1.02436 0.31836,1.37109 0.68313,0.89232 0.85129,2.04837 0.85904,3.12499 0.53278,1.32615 0.18538,2.79314 -0.22818,4.084 0.7684,1.69353 0.80768,3.60683 0.88284,5.43553 0.0145,1.27937 -0.0969,2.56166 -0.33792,3.81837 0.97993,1.12909 1.47334,2.61131 1.62696,4.0625 0.86345,1.53301 0.7526,3.51814 -0.17969,4.99024 0.42689,1.10752 0.34589,2.37871 -0.16211,3.44531 0.45744,0.88118 0.65715,1.89877 0.55859,2.88477 1.00184,2.07585 0.56237,4.46038 0.28172,6.65129 -0.23908,0.51891 0.0529,0.84291 0.43313,1.18464 0.87389,1.02222 1.22363,2.38956 1.22265,3.69922 0.39672,1.40999 -0.0328,2.9537 -0.93554,4.07813 -0.1958,2.5819 0.81335,5.15276 0.24936,7.73172 -0.10564,0.56017 -0.31097,1.10767 -0.63218,1.58078 0.76208,2.09774 0.55417,4.63136 -0.75139,6.46913 -0.40722,0.35606 -0.58828,0.7065 -0.24275,1.1825 0.13987,0.51702 0.14269,1.04237 0.5918,1.41477 0.9869,1.53067 0.88746,3.78771 -0.4707,5.0625 0.0398,0.98715 0.0303,2.05364 0.24023,2.98828 1.84808,1.64745 1.87608,4.35032 1.70508,6.63477 6.2e-4,0.61606 -0.26268,1.27959 -0.21094,1.85351 1.00638,1.51806 0.60774,3.60365 -0.47851,4.97657 0.0676,0.65276 -0.23579,1.2966 -0.32224,1.89705 0.66275,1.80237 1.4207,5.64108 -0.0925,6.75242 -0.76607,1.40272 -1.08025,3.07869 -2.25755,4.24092 -0.7632,0.66857 -0.98804,1.72831 -1.62695,2.51172 -1.7378,2.41105 -3.93087,4.46927 -6.22881,6.33816 -0.72267,0.61613 -1.63013,0.98327 -2.44111,1.4138 -0.78879,0.85529 -1.97024,1.22572 -3.08325,1.35176 -0.97296,0.59416 -3.72457,-1.14902 -4.79719,-1.15427 -0.98792,0.82817 -2.33251,1.12601 -3.59766,1.01563 -1.69039,1.53971 -4.21847,1.90753 -6.36328,1.29687 -1.04619,0.72499 -2.40115,1.33581 -3.64844,0.75586 -0.62972,-0.0417 -1.20458,-0.34488 -1.73633,-0.61719 -1.75167,0.20161 -3.7249,0.001 -5.05468,-1.27539 -0.78034,-0.007 -1.59372,-0.0639 -2.35547,0.0254 -1.4789,1.32689 -3.63004,1.20355 -5.44504,0.81241 -1.44223,-0.24079 -2.92551,-0.28314 -4.34012,-0.65616 -2.25407,1.13497 -5.21123,1.65149 -7.42187,0.14844 -0.40087,-0.4544 -1.04189,-0.002 -1.57032,-0.16797 -0.66112,-0.0156 -1.33485,0.30719 -2.02111,0.14592 -0.61536,-0.007 -1.18889,-0.40362 -1.73933,-0.48643 -2.05473,0.51583 -4.18135,-0.16075 -6.26965,0.0274 -1.16135,-0.0106 -2.24449,0.40829 -3.28631,0.86583 -2.0402,0.68143 -4.62705,-0.0471 -5.62696,-2.05079 -0.60692,-0.17092 -0.78112,0.62067 -1.27894,0.82137 -1.59477,1.19734 -3.97442,1.04835 -5.43033,-0.31056 -0.98733,-0.34208 -2.10982,-0.0232 -3.14098,0.0377 -1.2129,0.14567 -2.4549,0.19998 -3.65561,-0.0661 -0.97665,0.89466 -2.33509,0.90248 -3.55078,1.19531 -2.31131,0.80043 -4.83698,0.70677 -7.25331,0.56352 -0.75651,-0.0221 -1.53314,-0.12709 -2.26817,-0.19633 -2.00189,1.62973 -4.76791,1.38154 -7.17522,1.18038 -1.42955,-0.14229 -2.84774,-0.41607 -4.21736,-0.85226 -1.98187,0.9959 -4.17286,1.07239 -6.25695,1.63946 -2.39052,0.4856 -4.83955,-0.0391 -7.10438,-0.82305 -0.64589,0.0617 -1.31636,0.34227 -1.99809,0.22216 -0.57148,-0.0927 -1.10239,-0.21101 -1.67606,-0.0759 -1.23982,0.0969 -2.43043,-0.4646 -3.43913,-1.08381 -0.58826,0.12105 -1.226,0.0165 -1.78711,-0.0117 -0.61892,0.65768 -1.36785,1.17263 -2.05859,1.75 -1.27083,-0.47468 -2.74612,-0.57322 -3.83143,-1.42323 -0.31734,-0.37263 -0.50087,-1.07273 -0.82594,-1.28538 -2.05217,0.6435 -4.45371,1.21329 -6.45982,0.13048 -0.59615,-0.52417 -1.37795,-0.68937 -2.01953,-1.14648 -0.79869,0.17318 -1.58972,-0.31762 -2.3457,0.0254 -1.69512,0.3064 -3.43126,0.0671 -5.14098,0.0357 -1.52802,-0.0869 -3.08262,-0.32682 -4.4684,-1.00051 -0.66084,-0.065 -0.66522,0.74578 -1.13086,1.05664 -0.86676,1.03502 -2.28017,1.7285 -3.63086,1.27343 -0.82746,-0.0321 -1.5329,-0.57082 -2.19531,-0.93945 -1.02299,0.14133 -2.05535,-0.10068 -3.01554,-0.38671 -1.25137,0.15039 -2.51838,-0.34392 -3.47079,-1.10743 -1.20499,0.22714 -2.46904,0.0881 -3.64338,-0.0632 -0.78528,0.43069 -1.71476,0.44461 -2.56756,0.41677 -2.09011,0.60309 -4.41086,-0.38459 -5.67382,-2.10157 -0.73351,-0.064 -1.47659,-0.30229 -2.18407,-0.36324 -2.03083,0.60291 -4.2338,-0.27015 -5.71632,-1.68363 -0.63131,0.771 -1.26287,1.54179 -1.89454,2.3125 -1.73487,-0.93635 -3.9212,-1.50529 -4.88611,-3.39703 -0.52679,-0.76196 -0.9902,-1.57421 -1.30724,-2.44672 -2.79243,-1.05417 -5.06654,-3.18751 -6.90626,-5.44922 -2.1193,-0.14625 -3.89599,-2.10823 -3.75976,-4.24219 -0.5763,-1.85151 -1.69999,-3.51298 -2.30262,-5.3697 -0.30245,-0.84189 -0.48574,-1.74376 -0.70519,-2.59319 -1.91145,-1.54946 -2.53098,-4.1816 -2.46606,-6.5389 -0.0748,-0.51203 -0.69126,-0.87523 -0.87624,-1.40098 -0.86231,-1.50123 -1.04116,-3.417 -0.30809,-5.00543 -0.19312,-0.5585 0.0563,-1.18761 -0.4091,-1.64279 -1.17808,-2.14013 -1.3574,-4.79917 -0.62215,-7.10721 0.17333,-0.45192 0.67436,-0.84917 0.12286,-1.25833 -1.36884,-2.59564 -0.95409,-5.72243 -0.16388,-8.42136 -0.75423,-0.85911 -1.22976,-2.01039 -1.02758,-3.15312 -0.0582,-0.91697 0.3272,-1.87467 1.01977,-2.44454 -0.75416,-1.13637 -1.3679,-2.53501 -0.99805,-3.91601 -0.61886,-1.7142 0.0629,-3.77114 1.57031,-4.78906 0.0393,-1.22912 0.0134,-2.59394 -0.62304,-3.66797 -1.3251,-1.48953 -2.12328,-3.67019 -1.3125,-5.59766 0.24768,-0.6809 0.93231,-1.13922 0.88042,-1.91914 0.30809,-2.26827 0.33203,-4.59349 -0.0171,-6.8543 -0.66781,-1.20646 -1.01964,-2.66878 -0.46289,-3.99023 0.4636,-0.64903 -0.0568,-1.38479 -0.004,-2.11328 -0.0125,-0.56692 0.0493,-1.12751 -0.30078,-1.61328 -0.16629,-0.75211 -1.01358,-1.05612 -1.47698,-1.61226 -0.65453,-0.33794 0.0659,-1.03034 0.11565,-1.54985 0.38412,-1.17914 0.8788,-2.36469 1.75,-3.27149 -0.26184,-0.77172 -0.25757,-1.63548 -0.002,-2.38476 -0.63647,-1.51618 -0.0902,-3.21312 0.73717,-4.52912 0.76655,-3.44324 0.89011,-6.98707 1.11049,-10.49627 0.0483,-1.01265 0.0637,-2.29714 0.0664,-3.41406 0.17636,-0.68569 -0.45186,-1.08056 -0.63867,-1.67774 -0.46059,-1.06953 -0.41856,-2.30263 -0.12695,-3.40039 -0.51879,-0.98434 -0.5545,-2.19723 -0.23047,-3.25195 -0.74593,-1.56075 -0.27002,-3.46847 0.89453,-4.68555 -0.11481,-0.95366 -0.10736,-1.99738 0.32031,-2.90234 -0.36082,-1.32344 -0.28729,-2.73032 0.0293,-4.05469 -0.43209,-0.68749 -0.20148,-0.79891 -0.88545,-0.99984 l 0.0919,-1.08618 c 1.62109,-0.89713 -1.11271,-0.72974 0.50838,-1.62687 -0.16635,-0.77492 0.11222,-1.60349 0.64063,-2.18555 -0.0926,-0.96291 0.0552,-1.95243 0.42382,-2.8418 -0.87518,-2.27726 0.33594,-4.57233 0.76747,-6.7976 0.16514,-0.50788 0.24877,-0.99694 -0.2565,-1.329 -1.24881,-1.63261 -1.26139,-4.04226 -0.13011,-5.72886 -0.54614,-4.78678 -0.27148,-9.62277 0.11914,-14.41016 -0.0127,-0.65038 0.41504,-1.40111 -0.13671,-1.90625 -1.14221,-1.86267 -0.68273,-4.17467 -0.22657,-6.17773 0.0801,-0.48517 0.52665,-0.98168 0.0566,-1.37696 -0.50231,-0.79897 -0.74629,-1.7753 -0.59375,-2.71289 -0.76675,-1.00288 0.13514,-1.91781 0.59969,-3.09185 0.095,-1.30638 0.17127,-2.6348 1.36906,-2.92573 0.23427,-2.02747 0.45456,-4.09638 0.3711,-6.125 -1.24226,-1.99159 -0.89697,-4.47939 -0.45826,-6.66098 0.0597,-0.54111 0.56592,-1.11229 0.0543,-1.56701 -1.19761,-2.05727 -1.37787,-4.59081 -0.81089,-6.87357 -0.71836,-1.26615 -0.66926,-2.79129 -0.43945,-4.18359 -1.39863,-1.89017 -1.64299,-4.50874 -0.92187,-6.72071 -0.50848,-1.63293 -0.17433,-3.41168 0.55468,-4.92382 -0.64333,-1.83271 0.207,-4.04903 1.93164,-4.9668 0.49673,-1.71486 1.44878,-3.28948 1.82813,-5.0293 -0.0389,-2.16095 -1.07538,-4.05244 1.0607,-4.30947 -1.06581,-1.91267 -2.51624,-2.95057 -0.71577,-4.17191 0.42304,-0.29307 0.90491,-0.5049 0.26932,-0.91406 -1.65897,-1.7686 -3.43935,-3.59887 -4.10376,-6.00323 -0.47602,-0.50347 -0.85464,-1.11112 -1.02734,-1.78711 -1.44441,-0.44763 -2.82656,-1.52369 -3.19141,-3.04297 -1.69173,-1.37176 -2.12662,-3.63891 -2.64649,-5.60352 -0.44948,-0.34074 -0.77471,-0.83823 -1.09765,-1.26172 -1.98036,-0.35155 -3.91677,0.6914 -3.85585,-1.32525 -1.03471,-0.30321 -2.1016,-0.55649 -3.14735,-0.77534 -2.77244,-0.0951 -0.62863,-1.73113 -3.39634,-1.55643 -0.67263,1.87297 -1.98655,1.94817 -4.11826,1.92822 -0.72048,-0.001 -1.83075,0.0188 -2.4629,-0.33015 -1.93903,1.19992 -3.67107,0.67661 -5.9403,0.90949 -0.736967,0.56095 -1.564157,1.22565 -2.544567,1.39581 -1.16583,0.27982 -2.42065,-0.0177 -3.39453,-0.69922 -0.60005,0.002 -1.19934,-0.14246 -1.73828,-0.4043 -1.39124,1.25893 -3.69096,1.56835 -5.20703,0.36914 -1.19988,1.0074 -2.81082,1.70521 -4.42383,1.49024 -0.73033,0.42857 -1.60408,1.00862 -1.57422,1.95312 -0.32349,1.93 -2.06245,3.57911 -4.0707,3.49149 -0.48789,-0.0469 -0.92637,-0.0951 -1.29453,0.29367 -0.86511,0.53554 -1.90055,0.79621 -2.9043,0.75 -0.55431,0.27174 -1.12251,0.45597 -1.57031,0.89843 -0.60456,0.44001 -1.38286,0.52017 -1.90235,1.07813 -0.72881,0.54438 -1.67223,0.72393 -2.53515,0.80078 -0.84573,0.86579 -2.05026,1.29505 -3.250004,1.11523 -0.671123,-0.0122 -1.277852,-0.40305 -1.878906,-0.56445 -2.07251,0.23345 -4.159538,-0.19095 -6.189005,-0.58605 -4.65734,-1.09911 -9.238203,-2.61976 -13.540243,-4.7259 -2.275327,-1.23925 -4.798077,-2.59064 -5.93739,-5.04878 -0.659844,-0.68114 -1.59881,-1.12413 -2.354846,-1.72911 -4.449978,-3.21645 -7.339455,-8.31741 -8.392672,-13.65702 -0.182401,-0.62451 -0.116661,-1.35364 -0.367094,-1.93283 -1.673537,-1.82813 -1.62011,-4.48265 -1.716797,-6.79882 -1.389432,-1.82359 -1.171796,-4.2518 -1.181306,-6.41255 0.03854,-1.09708 0.127427,-2.06802 0.141123,-3.099556 -0.09438,-0.68081 0.231924,-1.62428 -0.49302,-2.02305 -1.381889,-1.21458 -1.802061,-3.39915 -0.888672,-5.01367 -0.560781,-0.9637 -0.890299,-2.18052 -0.380859,-3.23633 -0.214436,-1.98873 -0.165148,-4.15113 0.953125,-5.88672 -0.148223,-1.12345 0.09341,-2.31861 0.755859,-3.24805 -0.518067,-2.14234 -0.700485,-4.40178 -0.351562,-6.56836 -1.022042,-2.12495 -0.307735,-4.57815 0.542968,-6.63086 0.359323,-0.82963 1.023461,-1.50323 1.612847,-2.13052 0.804518,-3.26777 2.76236,-6.15993 5.101942,-8.53078 0.620729,-0.36351 0.226034,-1.13706 0.476618,-1.71565 0.383756,-1.78084 2.022897,-3.17774 3.861328,-3.16797 0.658544,-0.0749 1.316223,0.19135 1.925181,0.28941 0.476453,-0.091 0.773675,-0.36511 0.911421,-0.83294 1.148339,-2.01844 3.777181,-2.52034 5.892187,-2.02675 0.825758,0.12209 1.30917,-0.77105 2.081758,-0.92972 1.587571,-0.63612 3.499999,-0.32755 4.773437,0.79883 0.600494,-0.0165 1.402039,0.28427 1.810547,-0.30469 1.382912,-1.19478 3.544201,-1.30891 5.035156,-0.24804 0.487158,-0.12483 0.818448,-0.38384 1.083985,-0.80469 0.885826,-1.04082 2.37864,-0.86133 3.583984,-0.67969 0.722163,0.14941 1.384255,0.50829 1.953125,0.9707 1.297505,-0.59924 2.909155,-0.36434 4.035155,0.49415 0.91563,-0.2989 1.90716,-0.44075 2.85547,-0.3086 1.09606,-0.51775 2.411,-0.46051 3.50195,-0.004 0.7326,-0.36759 1.57899,-0.18245 2.36909,-0.21717 0.53869,-0.0837 1.05231,0.52619 1.51958,0.18592 0.57152,-0.69397 1.47049,-0.97042 2.29688,-1.1504 0.55666,-0.38302 1.11571,-0.76107 1.63672,-1.19335 1.3193,0.35349 2.92293,0.28523 3.85547,1.45507 1.334,-1.656 3.82515,-2.07974 5.71875,-1.20312 0.78359,-0.62169 1.77746,-0.9135 2.7207,-1.09961 0.79546,-0.62381 1.69882,-1.15758 2.70703,-1.33203 1.37135,-1.83346 3.807117,-2.254 5.959237,-2.22007 1.03507,-0.0678 2.0887,0.0308 3.11107,-0.005 0.72124,-1.29981 2.05817,-2.26411 3.53907,-2.42578 1.33449,-1.23492 3.22555,-1.37156 4.95277,-1.44383 0.36952,-0.10648 0.19191,-0.80089 0.42205,-1.12059 0.781,-2.26067 3.7153,-3.42582 5.79705,-2.19535 1.26688,-1.9153 3.69827,-2.54874 5.85547,-2.76953 0.63733,-0.13879 1.38993,0.24391 1.89844,-0.26367 0.79543,-0.51509 1.77603,-0.722 2.61719,-1.04883 1.17183,-1.7271 3.4162,-2.12587 5.36445,-2.05186 0.95392,-0.0235 1.95845,0.10881 2.87969,0.0167 0.88213,-1.57193 2.84988,-2.44208 4.60351,-2 0.5782,-0.29612 1.2337,-0.40008 1.87695,-0.42773 0.89985,-1.258623 2.39315,-1.918625 3.92774,-1.767578 z"
       sodipodi:nodetypes="cccccccccccccccccccccccccccccccccccccccccccccccccccccccccccccccccccccccccccccccccccccccccccccccccccccccccccccccccccccccccccccccccccccccccccccccccccccccccccccccccccccccccccccccccccccccccccccccccccccccccccccccccccccccccccccccccccccccccccccccccccccccccccccccccccccccccccccccccccccccccccccccccccccccccccccccccccccccccccccccccccccccccccccccccccccccccccccccccccccccccccccccccccccccccccccccccccccccccccccccccccccccccccccccccccccccccccccccccccccccccccccccccccccccccccccccccccccccccccccccccccccccccccccccccccccccccccccccccccccccccccccccccccccccccccccccccccccccccccccccccccccccccccccccccccccccccccccccccccccccccccccccccccccccccccccccccccccccccccccccccccccccccccccccccccccccccccccccccccccccccccccccccccccccccccccccccccccccccccccccccccccccccccccccccccccccccccccccccccccccccccccccccccccccccccccccccccccccccccccccccccccccccccccccccccccccccccccccccccccccccccccccccccccccccccccc" />
  </g>
</svg>
